<?xml version="1.0" standalone="no"?>
<!DOCTYPE svg PUBLIC "-//W3C//DTD SVG 1.1//EN" "http://www.w3.org/Graphics/SVG/1.1/DTD/svg11.dtd" >
<svg xmlns="http://www.w3.org/2000/svg" xmlns:xlink="http://www.w3.org/1999/xlink" version="1.1">
<metadata>
Created by FontForge 20200427 at Mon Jun  6 17:44:48 2011
 By www
Font software Copyright 1989, 1990, 2001 Adobe Systems Incorporated. Typeface designs Copyright 2007 International Typeface Corporation. All rights reserved.
</metadata>
<defs>
<font id="ITCNovareseW01-Medium" horiz-adv-x="500" >
  <font-face 
    font-family="ITCNovareseW01-Medium"
    font-weight="400"
    font-stretch="normal"
    units-per-em="1000"
    panose-1="2 3 6 3 4 7 5 2 4 4"
    ascent="730"
    descent="-270"
    x-height="460"
    cap-height="640"
    bbox="-18 -215 1000 907"
    underline-thickness="50"
    underline-position="-150"
    unicode-range="U+000D-2122"
  />
<missing-glyph horiz-adv-x="0" 
 />
    <glyph glyph-name=".notdef" horiz-adv-x="0" 
 />
    <glyph glyph-name="glyph1" horiz-adv-x="0" 
 />
    <glyph glyph-name="uni000D" unicode="&#xd;" horiz-adv-x="0" 
 />
    <glyph glyph-name="space" unicode=" " horiz-adv-x="250" 
 />
    <glyph glyph-name="exclam" unicode="!" horiz-adv-x="334" 
d="M123 634h92l-26 -466h-44zM112 39q0 23 16 39t39 16t39 -16t16 -39t-16 -39t-39 -16t-39 16t-16 39z" />
    <glyph glyph-name="quotedbl" unicode="&#x22;" horiz-adv-x="389" 
d="M245 485q-3 32 -5.5 52l-4 32t-2 17.5t-0.5 9.5q0 15 7.5 26.5t32.5 11.5t32.5 -11.5t7.5 -26.5q0 -4 -0.5 -9.5t-2 -17.5l-4 -32t-5.5 -52l-6 -43q-1 -8 -4.5 -14t-17.5 -6t-17.5 6t-4.5 14zM88 485q-3 32 -5.5 52l-4 32t-2 17.5t-0.5 9.5q0 15 7.5 26.5t32.5 11.5
t32.5 -11.5t7.5 -26.5q0 -4 -0.5 -9.5t-2 -17.5l-4 -32t-5.5 -52l-6 -43q-1 -8 -4.5 -14t-17.5 -6t-17.5 6t-4.5 14z" />
    <glyph glyph-name="numbersign" unicode="#" 
d="M120 202h-104v44h111l20 142h-104v44h111l29 202h50l-29 -202h124l29 202h50l-29 -202h104v-44h-111l-20 -142h104v-44h-111l-29 -202h-50l29 202h-124l-29 -202h-50zM301 246l20 142h-124l-20 -142h124z" />
    <glyph glyph-name="dollar" unicode="$" 
d="M231 -16q-48 0 -94 9.5t-88 35.5q0 79 -6 159h14q18 -78 62.5 -113t123.5 -35q28 0 54.5 8.5t46 25t31.5 40.5t12 55q0 24 -7.5 40.5t-19 27.5t-26 17.5t-27.5 10.5l-126 33q-33 9 -60.5 21t-47 31.5t-30 47t-10.5 66.5q0 41 16.5 73.5t44 56t63.5 37.5t74 19v110h50
v-110q38 0 74 -8t72 -19q0 -73 6 -145h-14q-5 31 -20.5 53t-38 36t-49 20.5t-52.5 6.5q-44 0 -73.5 -12t-47 -30t-24.5 -38.5t-7 -36.5q0 -29 19.5 -52.5t72.5 -37.5l132 -34q16 -4 39 -13.5t44.5 -27.5t37 -47.5t15.5 -74.5q0 -43 -13.5 -77t-38 -59.5t-59 -42.5t-75.5 -24
v-140h-50v137z" />
    <glyph glyph-name="percent" unicode="%" horiz-adv-x="667" 
d="M89 511q0 -24 6.5 -47.5t19 -42.5t32 -31t45.5 -12q41 0 63 29t22 67q0 23 -6.5 47.5t-19.5 44.5t-32.5 33t-46.5 13q-21 0 -37 -8.5t-26 -22.5t-15 -32t-5 -38zM156 0l325 650l32 -16l-325 -650zM390 155q0 -24 6.5 -47.5t19 -42.5t32 -31t45.5 -12q41 0 63 29t22 67
q0 23 -6.5 47.5t-19.5 44.5t-32.5 33t-46.5 13q-21 0 -37 -8.5t-26 -22.5t-15 -32t-5 -38zM328 140q0 31 12.5 59t34 49t49.5 33.5t60 12.5q31 0 59.5 -12.5t50 -33.5t34 -49t12.5 -59q0 -25 -9.5 -52.5t-29 -50.5t-49 -38t-68.5 -15q-32 0 -60 12.5t-49.5 34t-34 49.5
t-12.5 60zM27 496q0 31 12.5 59t34 49t49.5 33.5t60 12.5q31 0 59.5 -12.5t50 -33.5t34 -49t12.5 -59q0 -25 -9.5 -52.5t-29 -50.5t-49 -38t-68.5 -15q-32 0 -60 12.5t-49.5 34t-34 49.5t-12.5 60z" />
    <glyph glyph-name="ampersand" unicode="&#x26;" horiz-adv-x="667" 
d="M324 171q5 45 30 69t70 24h129q35 0 51.5 5t26.5 19q2 2 2.5 3.5t2.5 1.5q4 0 4 -10t-4.5 -22.5t-15 -24t-28 -20t-43.5 -10.5q-9 -114 -77 -168t-177 -54q-70 0 -116.5 19.5t-74.5 48.5t-39.5 64t-11.5 65q0 40 12 69.5t33.5 50.5t51.5 34.5t66 22.5v2q-21 5 -41 16
t-35.5 26.5t-24.5 35.5t-9 44q0 44 21.5 76t54.5 52.5t72 30t74 9.5t71 -6.5t69 -17.5q1 -29 3.5 -56.5t6.5 -56.5h-14q-16 45 -53 66t-82 21q-16 0 -38.5 -4.5t-43 -18t-35 -37t-14.5 -60.5q0 -33 13 -55.5t35 -36t50 -19.5t58 -6q18 0 18 -12q0 -11 -18 -12
q-40 -3 -77.5 -10t-67 -23.5t-47 -46t-17.5 -76.5q0 -34 13.5 -62.5t36.5 -49t53 -32t62 -11.5q85 0 130 47.5t47 132.5h-58q-34 0 -58.5 -7t-32.5 -30h-14z" />
    <glyph glyph-name="quotesingle" unicode="'" horiz-adv-x="222" 
d="M83 485q-3 32 -5.5 52l-4 32t-2 17.5t-0.5 9.5q0 15 7.5 26.5t32.5 11.5t32.5 -11.5t7.5 -26.5q0 -4 -0.5 -9.5t-2 -17.5l-4 -32t-5.5 -52l-6 -43q-1 -8 -4.5 -14t-17.5 -6t-17.5 6t-4.5 14z" />
    <glyph glyph-name="parenleft" unicode="(" horiz-adv-x="333" 
d="M96 254q0 94 11.5 156.5t27.5 102.5t32 60.5t25 30.5q7 8 17 16t20 15t18.5 11t12.5 4q3 0 6.5 -2.5t3.5 -4.5t-15 -14.5t-26 -32.5q-9 -15 -15.5 -28.5t-11 -30t-7.5 -39t-4.5 -55t-2 -79t-0.5 -110.5t0.5 -110.5t2 -79t4.5 -55t7.5 -39t11 -30t15.5 -28.5
q11 -20 26 -32.5t15 -14.5t-3.5 -4.5t-6.5 -2.5q-4 0 -12.5 4t-18.5 11t-20 15t-17 16q-9 10 -25 30.5t-32 60.5t-27.5 102.5t-11.5 156.5z" />
    <glyph glyph-name="parenright" unicode=")" horiz-adv-x="333" 
d="M237 254q0 -94 -11.5 -156.5t-27.5 -102.5t-32 -60.5t-25 -30.5q-7 -8 -17 -16t-20 -15t-18.5 -11t-12.5 -4q-3 0 -6.5 2.5t-3.5 4.5t15 14.5t26 32.5q9 15 15.5 28.5t11 30t7.5 39t4.5 55t2 78.5t0.5 111q0 64 -0.5 110.5t-2 79t-4.5 55t-7.5 39t-11 29.5t-15.5 29
q-11 20 -26 32.5t-15 14.5t3.5 4.5t6.5 2.5q4 0 12.5 -4t18.5 -11t20 -15t17 -16q9 -10 25 -30.5t32 -60.5t27.5 -102.5t11.5 -156.5z" />
    <glyph glyph-name="asterisk" unicode="*" 
d="M227 443l-87 -68l-33 53l103 52l-108 50l35 60l90 -72l-11 116h68l-11 -116l92 71l31 -58l-104 -47l106 -49l-34 -55l-91 65l9 -114h-66z" />
    <glyph glyph-name="plus" unicode="+" 
d="M223 290h-177v52h177v213h54v-213h177v-52h-177v-215h-54v215z" />
    <glyph glyph-name="comma" unicode="," horiz-adv-x="250" 
d="M174 112v-29q0 -10 -2.5 -27t-6 -35.5t-9 -36.5t-11.5 -31q-22 -47 -37.5 -63t-20.5 -16q-11 0 -11 9q0 2 3 10.5t6 21t6 28t3 33.5q0 35 -5.5 68.5t-12.5 67.5h98z" />
    <glyph glyph-name="hyphen" unicode="-" horiz-adv-x="333" 
d="M58 290h161q25 0 40 8.5t20 31.5h14l-22 -114h-146q-24 0 -41 -8.5t-30 -35.5h-14z" />
    <glyph glyph-name="period" unicode="." horiz-adv-x="250" 
d="M76 33q0 20 14.5 34.5t34.5 14.5t34.5 -14.5t14.5 -34.5t-14.5 -34.5t-34.5 -14.5t-34.5 14.5t-14.5 34.5z" />
    <glyph glyph-name="slash" unicode="/" horiz-adv-x="278" 
d="M-17 -16l267 684l45 -18l-268 -683z" />
    <glyph glyph-name="zero" unicode="0" 
d="M38 308q0 57 13 118t40 110.5t69 81.5t99 32q49 0 86.5 -26t63.5 -70.5t39.5 -103.5t13.5 -124q0 -62 -13.5 -123.5t-40.5 -110t-67.5 -78.5t-93.5 -30q-50 0 -88.5 29t-65.5 75.5t-41 104.5t-14 115zM130 308q0 -54 7 -104.5t21.5 -89.5t36.5 -62.5t52 -23.5
q33 0 56.5 28.5t38 74.5t21.5 103.5t7 114.5q0 75 -9 125t-24 79t-35.5 41t-42.5 12q-23 0 -46 -15.5t-41.5 -51t-30 -92.5t-11.5 -139z" />
    <glyph glyph-name="one" unicode="1" 
d="M153 8q21 2 37.5 11t16.5 27v490q0 26 -15 34t-38 11v14q37 10 71.5 25t69.5 30q-1 -26 -1.5 -52t-0.5 -52v-500q0 -18 16.5 -27t37.5 -11v-14q-26 2 -48 4t-49 2t-49 -2t-48 -4v14z" />
    <glyph glyph-name="two" unicode="2" 
d="M64 60q43 40 91 82.5t88 90t66.5 101t26.5 115.5q0 81 -33.5 116t-81.5 35q-25 0 -47 -9.5t-39.5 -25t-30 -35.5t-17.5 -41h-20q5 32 9.5 64t6.5 64q32 18 67.5 25.5t72.5 7.5q54 0 93 -17.5t64 -45t36.5 -60.5t11.5 -64q0 -66 -28 -119.5t-71 -99t-94 -85.5t-97 -79h301
l-13 -80h-362v60z" />
    <glyph glyph-name="three" unicode="3" 
d="M69 16q55 6 104 19t86 35.5t58.5 55t21.5 78.5q0 31 -16 52t-44 34t-67 19.5t-85 8.5l6 38q38 1 71 8t58 23.5t39 42.5t14 65q0 52 -28 84.5t-78 32.5q-27 0 -47.5 -11.5t-36.5 -29.5t-28 -40t-21 -44h-20q9 34 17 67.5t14 67.5q66 28 133 28q34 0 68 -8.5t60 -27
t42.5 -47t16.5 -67.5q0 -32 -13 -58t-34.5 -45.5t-49 -32t-55.5 -17.5v-2q34 -1 66 -7.5t56.5 -22t39 -42t14.5 -66.5q0 -53 -33.5 -94t-85.5 -69.5t-115.5 -43.5t-122.5 -16z" />
    <glyph glyph-name="four" unicode="4" 
d="M304 142h-254v50q21 43 38 76.5t34 62.5t35 57t40 60l132 186h55v-448h71v-44h-71v-142h-80v142zM304 186v325h-2q-23 -27 -51 -65.5t-55.5 -82t-52.5 -89.5t-43 -88h204z" />
    <glyph glyph-name="five" unicode="5" 
d="M79 0q47 12 93.5 32t84 49t61 67t23.5 85q0 68 -42 103t-106 35q-32 0 -63.5 -8.5t-62.5 -16.5q0 28 1 52t4 60l14 176h326l-8 -68h-271l-8 -88q-1 -7 -1.5 -17t-0.5 -21v-21.5v-17.5q26 9 59.5 17.5t61.5 8.5q37 0 71 -10.5t60 -31t42 -51t16 -70.5q0 -65 -33 -116
t-84 -87.5t-112.5 -58t-117.5 -27.5z" />
    <glyph glyph-name="six" unicode="6" 
d="M142 353q24 30 60 51.5t77 21.5q50 0 85 -21t56.5 -52.5t31.5 -68.5t10 -69q0 -41 -13.5 -82.5t-40.5 -74.5t-67 -53.5t-93 -20.5q-52 0 -91.5 21.5t-65.5 56.5t-39.5 79t-13.5 90q0 74 26.5 142t71.5 126t103.5 102t121.5 70l8 -21q-41 -24 -79 -55t-68.5 -69
t-51.5 -81.5t-30 -91.5h2zM124 219q0 -50 13 -86.5t32.5 -59.5t43.5 -34t46 -11q27 0 51 11.5t41 32t27 49.5t10 64q0 31 -8.5 65t-25 62t-42 46t-59.5 18q-27 0 -50.5 -11.5t-41 -32.5t-27.5 -50t-10 -63z" />
    <glyph glyph-name="seven" unicode="7" 
d="M182 9q0 45 13.5 99t35 110t49 111.5t56.5 103.5l70 121h-204q-26 0 -44 -5.5t-30.5 -18.5t-21 -34t-14.5 -51h-20q8 48 15.5 94.5t12.5 94.5h389l-78 -165q-68 -145 -98.5 -245t-36.5 -172l-4 -52h-90v9z" />
    <glyph glyph-name="eight" unicode="8" 
d="M35 163q0 39 12 68t32.5 51t49 38.5t61.5 30.5q-19 13 -38 28t-34 32.5t-24.5 39t-9.5 47.5q0 36 15.5 64t40.5 47.5t57 30t65 10.5q32 0 62 -9.5t53 -28.5t37 -46t14 -61q0 -29 -9 -50t-24 -36.5t-35.5 -27.5t-44.5 -23q30 -18 57 -37t47.5 -42.5t33 -53t12.5 -67.5
q0 -48 -17.5 -83t-47.5 -57.5t-69.5 -33t-82.5 -10.5q-41 0 -79.5 11t-68 33t-47.5 56t-18 79zM121 174q0 -32 8.5 -60t25.5 -48.5t42 -32t59 -11.5q58 0 93.5 36t35.5 95q0 30 -9.5 52.5t-29 42t-48.5 38.5t-67 42q-53 -12 -81.5 -54.5t-28.5 -99.5zM164 523
q0 -19 5.5 -33.5t19 -29t36 -31t55.5 -40.5q21 13 35.5 25.5t23 26t12 30t3.5 36.5q0 48 -25.5 76.5t-70.5 28.5q-43 0 -68.5 -25.5t-25.5 -63.5z" />
    <glyph glyph-name="nine" unicode="9" 
d="M132 -16q41 24 79 55t68.5 69t51.5 81.5t30 91.5h-2q-24 -30 -60.5 -51.5t-78.5 -21.5q-50 0 -84.5 21t-56 52.5t-31.5 68.5t-10 69q0 41 13.5 82.5t40 74.5t66.5 53.5t93 20.5q52 0 92 -21.5t66 -56.5t39.5 -79t13.5 -90q0 -74 -26.5 -142t-71 -126t-102.5 -102
t-122 -70zM112 449q0 -31 8.5 -65t25 -62t41.5 -46t59 -18q27 0 50.5 11.5t41.5 32.5t28 49.5t10 63.5q0 50 -13 86t-33 59.5t-44 34.5t-47 11q-27 0 -50 -11.5t-40 -32t-27 -49.5t-10 -64z" />
    <glyph glyph-name="colon" unicode=":" horiz-adv-x="250" 
d="M76 33q0 20 14.5 34.5t34.5 14.5t34.5 -14.5t14.5 -34.5t-14.5 -34.5t-34.5 -14.5t-34.5 14.5t-14.5 34.5zM76 320q0 20 14.5 34.5t34.5 14.5t34.5 -14.5t14.5 -34.5t-14.5 -34.5t-34.5 -14.5t-34.5 14.5t-14.5 34.5z" />
    <glyph glyph-name="semicolon" unicode=";" horiz-adv-x="250" 
d="M174 112v-29q0 -10 -2.5 -27t-6 -35.5t-9 -36.5t-11.5 -31q-22 -47 -37.5 -63t-20.5 -16q-11 0 -11 9q0 2 3 10.5t6 21t6 28t3 33.5q0 35 -5.5 68.5t-12.5 67.5h98zM76 320q0 20 14.5 34.5t34.5 14.5t34.5 -14.5t14.5 -34.5t-14.5 -34.5t-34.5 -14.5t-34.5 14.5
t-14.5 34.5z" />
    <glyph glyph-name="less" unicode="&#x3c;" 
d="M48 290v49l404 222v-59l-341 -186v-2l341 -186v-59z" />
    <glyph glyph-name="equal" unicode="=" 
d="M46 441h409v-51h-409v51zM46 247h409v-51h-409v51z" />
    <glyph glyph-name="greater" unicode="&#x3e;" 
d="M48 128l342 186v2l-342 186v59l404 -221v-50l-404 -221v59z" />
    <glyph glyph-name="question" unicode="?" 
d="M194 314q69 4 111.5 40t42.5 105q0 25 -7.5 49.5t-22.5 43.5t-38 30.5t-54 11.5q-50 0 -89 -31.5t-57 -79.5h-20q5 34 8.5 67t5.5 67q31 16 69 24.5t73 8.5q48 0 89 -13t71 -37.5t47 -59.5t17 -78q0 -59 -22.5 -95t-53 -57.5t-61.5 -32t-48 -18.5q-26 -12 -33.5 -35
t-7.5 -50h-20v140zM148 39q0 23 16 39t39 16t39 -16t16 -39t-16 -39t-39 -16t-39 16t-16 39z" />
    <glyph glyph-name="at" unicode="@" horiz-adv-x="800" 
d="M497 77q-19 -40 -47.5 -58.5t-74.5 -18.5q-49 0 -79 25t-30 74q0 87 115 107l103 13q11 2 13 9.5t2 15.5q0 40 -21 58t-61 18q-36 0 -62.5 -13t-43.5 -45h-8l5 80q26 11 54 15t55 4q31 0 56.5 -7t44.5 -22t29.5 -39t10.5 -59v-174q0 -9 2.5 -13t10.5 -4q31 0 56 18
t41.5 46t25.5 62t9 66q0 39 -19 83.5t-55.5 82t-89.5 62.5t-121 25q-59 0 -109.5 -21.5t-88.5 -63.5t-59.5 -102.5t-21.5 -138.5q0 -50 20 -98t57.5 -86.5t90.5 -62t119 -23.5q56 0 98.5 12t92.5 35l13 -31q-47 -23 -98 -38.5t-105 -15.5q-97 0 -166.5 31.5t-114.5 79
t-66 103.5t-21 104q0 78 28 142t77 110t114.5 71t139.5 25q69 0 128 -21.5t102.5 -59.5t68 -90t24.5 -113q0 -39 -12 -81t-35 -76t-58 -56t-80 -22q-12 0 -23 2t-19 8q-3 2 -5.5 5t-4.5 9.5t-3.5 19t-1.5 32.5h-2zM495 186l-93 -16q-38 -9 -55 -25t-17 -42q0 -30 19 -44
t48 -14q26 0 44.5 12.5t30.5 31.5t17.5 41t5.5 41v15z" />
    <glyph glyph-name="A" unicode="A" horiz-adv-x="611" 
d="M-1 8q13 0 21.5 3t15 10t12.5 19.5t14 33.5l178 488l4 16t2 17q0 17 -7.5 22t-24.5 9v14l38 -4t38 -2q13 0 26 2l26 4q3 -21 11.5 -48t22.5 -62l169 -441q10 -25 16.5 -40t13 -23t15 -11.5t22.5 -6.5v-14q-20 0 -38.5 3t-38.5 3q-29 0 -58.5 -3t-58.5 -3v14q26 2 36 9
t10 21q0 13 -5.5 31t-21.5 59l-41 110h-215l-49 -138q-8 -20 -12 -38t-4 -29t10 -17.5t42 -7.5v-14q-20 0 -39.5 3t-39.5 3q-23 0 -45 -3t-45 -3v14zM378 288l-89 248h-2l-89 -248h180z" />
    <glyph glyph-name="B" unicode="B" horiz-adv-x="611" 
d="M54 14q29 5 40 13t11 29v522q0 21 -11 29t-40 13v14h243q40 0 81 -5.5t73 -21.5t52.5 -45t20.5 -76q0 -59 -36 -91t-90 -48v-2q36 -4 69 -14t58 -28.5t40 -46.5t15 -68q0 -36 -17 -70t-51 -60t-85.5 -42t-120.5 -16h-252v14zM272 50q98 0 154 32t56 94q0 68 -46.5 100
t-131.5 32h-101v-258h69zM258 364q86 0 130 29t44 81q0 30 -11 50.5t-30 34t-43.5 19.5t-52.5 6h-92v-220h55z" />
    <glyph glyph-name="C" unicode="C" horiz-adv-x="611" 
d="M572 61q-40 -39 -98.5 -58t-122.5 -19q-49 0 -103.5 18.5t-100 58.5t-75.5 102.5t-30 150.5q0 61 16.5 109.5t44 85.5t63 64t75 44t79 25t74.5 8q38 0 77.5 -7t74.5 -24q1 -38 3.5 -75t6.5 -75h-14q-8 34 -26 57t-42.5 36.5t-52.5 19.5t-54 6q-50 0 -92.5 -17t-74 -48.5
t-49 -76t-17.5 -99.5q0 -58 19 -111t53 -94t79.5 -65.5t98.5 -24.5q52 0 101 18.5t91 46.5z" />
    <glyph glyph-name="D" unicode="D" horiz-adv-x="722" 
d="M54 14q29 5 40 13t11 29v522q0 21 -11 29t-40 13v14h237q95 0 168 -22.5t122 -63.5t74 -98.5t25 -128.5q0 -72 -28.5 -131t-77.5 -101t-115 -65.5t-140 -23.5h-265v14zM203 56h140q38 0 80 17t77.5 48.5t58.5 77t23 103.5q0 43 -13 91.5t-49 89.5t-100 68t-167 27h-50
v-522z" />
    <glyph glyph-name="E" unicode="E" horiz-adv-x="611" 
d="M54 14q29 5 40 13t11 29v522q0 21 -11 29t-40 13v14h482q0 -75 6 -148h-20q-5 30 -13 48t-20 28t-26.5 13t-30.5 3h-229v-214h142q13 0 24 1.5t18.5 7t12.5 17t8 32.5h20q-2 -22 -4 -42.5t-2 -42.5q0 -23 2 -44t4 -43h-20q-3 21 -8 32.5t-12.5 17t-18.5 7t-24 1.5h-142
v-252h212q31 0 54 4t39.5 16t27 33t17.5 55h19q-4 -42 -6.5 -82t-3.5 -82h-508v14z" />
    <glyph glyph-name="F" unicode="F" horiz-adv-x="556" 
d="M72 8q29 5 40 13t11 29v528q0 21 -11 29t-40 13v14h474q0 -75 6 -148h-20q-5 30 -13 48t-20 28t-26.5 13t-30.5 3h-221v-234h145q17 1 28 3.5t18 8.5t10.5 16.5t5.5 27.5h20q-2 -25 -4 -44.5t-2 -36.5q0 -22 2 -42t4 -45h-20q-4 34 -16 44t-46 12h-145v-238q0 -21 11 -29
t40 -13v-14q-16 0 -43.5 3t-56.5 3t-56.5 -3t-43.5 -3v14z" />
    <glyph glyph-name="G" unicode="G" horiz-adv-x="722" 
d="M551 60q-25 -18 -48.5 -32.5t-48 -24t-51.5 -14.5t-58 -5q-58 0 -112.5 22.5t-97 64.5t-68 101.5t-25.5 133.5q0 63 18 113t47 88t67 65.5t77.5 44.5t78.5 25t71 8q104 0 205 -43q0 -74 6 -147h-20q-8 34 -29.5 59.5t-51 42t-63 24.5t-65.5 8q-34 0 -77 -13.5
t-81.5 -44.5t-64.5 -81.5t-26 -125.5q0 -53 20 -104t53.5 -90.5t76.5 -64t88 -24.5q26 0 55.5 6.5t54.5 21t41.5 38t16.5 58.5v50q0 13 -2 22.5t-9 15.5t-20.5 9.5t-35.5 5.5v14q31 -2 61.5 -4t61.5 -2q21 0 42 2l42 4v-14q-26 -2 -37 -11t-11 -37v-231h-54z" />
    <glyph glyph-name="H" unicode="H" horiz-adv-x="722" 
d="M54 8q29 5 40 13t11 29v534q0 21 -11 29t-40 13v14q16 0 43.5 -3t56.5 -3t56.5 3t43.5 3v-14q-29 -5 -40 -13t-11 -29v-220h316v220q0 21 -11 29t-40 13v14q16 0 43.5 -3t56.5 -3t56.5 3t43.5 3v-14q-29 -5 -40 -13t-11 -29v-534q0 -21 11 -29t40 -13v-14q-16 0 -43.5 3
t-56.5 3t-56.5 -3t-43.5 -3v14q29 5 40 13t11 29v252h-316v-252q0 -21 11 -29t40 -13v-14q-16 0 -43.5 3t-56.5 3t-56.5 -3t-43.5 -3v14z" />
    <glyph glyph-name="I" unicode="I" horiz-adv-x="278" 
d="M39 8q29 5 40 13t11 29v534q0 21 -11 29t-40 13v14q16 0 43.5 -3t56.5 -3t56.5 3t43.5 3v-14q-29 -5 -40 -13t-11 -29v-534q0 -21 11 -29t40 -13v-14q-16 0 -43.5 3t-56.5 3t-56.5 -3t-43.5 -3v14z" />
    <glyph glyph-name="J" unicode="J" horiz-adv-x="278" 
d="M15 -111q19 6 33.5 20t23.5 31t13.5 35.5t4.5 33.5v575q0 21 -11 29t-40 13v14q16 0 43.5 -3t56.5 -3t56.5 3t43.5 3v-14q-29 -5 -40 -13t-11 -29v-530q0 -36 -11 -67t-29.5 -55t-44 -41t-54.5 -26z" />
    <glyph glyph-name="K" unicode="K" horiz-adv-x="667" 
d="M72 8q29 5 40 13t11 29v534q0 21 -11 29t-40 13v14q16 0 43.5 -3t56.5 -3t56.5 3t43.5 3v-14q-29 -5 -40 -13t-11 -29v-252h2l212 227q20 22 26 30.5t6 15.5q0 18 -44 21v14q28 0 55 -3t55 -3q23 0 45 3t45 3v-14q-31 -5 -45.5 -13.5t-29.5 -24.5l-231 -239
q31 -31 62 -60t62 -64l155 -178q16 -18 30 -27.5t37 -11.5v-14q-21 2 -41.5 4t-36.5 2q-20 0 -35.5 -2t-27.5 -4l-119 141q-42 50 -88 94t-94 89v-268q0 -21 11 -29t40 -13v-14q-16 0 -43.5 3t-56.5 3t-56.5 -3t-43.5 -3v14z" />
    <glyph glyph-name="L" unicode="L" horiz-adv-x="556" 
d="M54 14q29 5 40 13t11 29v528q0 21 -11 29t-40 13v14q16 0 43.5 -3t56.5 -3t58 3t55 3v-14q-38 -3 -51 -14t-13 -28v-528h190q34 0 57.5 5.5t38 19t22 36.5t10.5 58h18q-4 -44 -5.5 -87.5t-2.5 -87.5h-477v14z" />
    <glyph glyph-name="M" unicode="M" horiz-adv-x="833" 
d="M29 8q26 2 40 10t15 26l25 488q1 18 1 35.5v22.5q0 32 -44 36v14q23 0 44 -3t34 -3q31 0 51 3t37 3l195 -489l187 489q18 0 35.5 -3t35.5 -3q20 0 38.5 3t38.5 3v-14q-18 0 -30 -8t-12 -29q0 -6 1 -26.5t3 -51.5l27 -444q2 -32 13 -45t40 -14v-14q-23 0 -46 3t-46 3
q-28 0 -55 -3t-54 -3v14q17 2 28 5t17 7t8.5 10.5t2.5 16.5q0 11 -0.5 36.5t-1.5 54.5t-2 55.5t-2 40.5l-20 296h-2l-201 -536h-40l-217 548h-2l-17 -406q0 -11 -1 -24.5t-1.5 -26.5t-1 -23t-0.5 -13q0 -16 14.5 -28.5t44.5 -12.5v-14q-25 0 -46.5 3t-44.5 3q-21 0 -42.5 -3
t-46.5 -3v14z" />
    <glyph glyph-name="N" unicode="N" horiz-adv-x="722" 
d="M54 8q29 5 40 13t11 29v534q0 21 -11 29t-40 13v14q21 0 42.5 -3t42.5 -3q20 0 37.5 3t36.5 3l340 -467h2v362q0 25 -3.5 41t-11.5 26t-21.5 15.5t-33.5 8.5v14q21 0 42 -3t42 -3q25 0 49.5 3t49.5 3v-14q-29 -5 -40 -13t-11 -29v-590h-59l-389 536h-2v-431
q0 -25 3.5 -41t11.5 -26t21.5 -15.5t33.5 -8.5v-14q-21 0 -42 3t-42 3q-25 0 -49.5 -3t-49.5 -3v14z" />
    <glyph glyph-name="O" unicode="O" horiz-adv-x="722" 
d="M42 315q0 73 29.5 135t76.5 106t105.5 69t116.5 25q83 0 142 -30.5t96.5 -77.5t54.5 -104.5t17 -112.5q0 -65 -23 -126t-65.5 -109t-102.5 -77t-134 -29q-75 0 -133.5 26.5t-98.5 71.5t-60.5 105t-20.5 128zM134 340q0 -53 16.5 -104.5t48 -92.5t77 -66t103.5 -25
q40 0 77.5 14.5t66.5 44t47 74t18 104.5q0 66 -20.5 120t-55 92.5t-79 59.5t-92.5 21q-27 0 -63 -12t-68 -40t-54 -74.5t-22 -115.5z" />
    <glyph glyph-name="P" unicode="P" horiz-adv-x="556" 
d="M54 8q29 5 40 13t11 29v528q0 21 -11 29t-40 13v14h294q49 0 86 -13.5t62 -38.5t37 -59t12 -76q0 -46 -17 -83t-47.5 -63t-72.5 -40t-93 -14q-9 0 -22.5 1.5t-27.5 5t-26.5 8.5t-19.5 11l-4 4t-2 6q0 8 14 8h60q35 0 65.5 9.5t53 28t35 46t12.5 62.5q0 48 -16 77
t-45.5 44.5t-70.5 20.5t-92 5h-26v-534q0 -21 11 -29t40 -13v-14q-16 0 -43.5 3t-56.5 3t-56.5 -3t-43.5 -3v14z" />
    <glyph glyph-name="Q" unicode="Q" horiz-adv-x="722" 
d="M663 -10q-38 -18 -81 -18q-9 0 -23.5 1.5t-31 5.5t-33 10t-28.5 15q-51 -20 -111 -20q-75 0 -133.5 26.5t-98.5 71.5t-60.5 105t-20.5 128q0 73 29.5 135t76.5 106t105.5 69t116.5 25q83 0 142 -30.5t96.5 -77.5t54.5 -104.5t17 -112.5q0 -80 -34 -153t-97 -122
q21 -16 37 -22t27 -6q22 0 36 0.5t26 1.5zM134 340q0 -53 16.5 -104.5t48 -92.5t77 -66t103.5 -25q40 0 77.5 14.5t66.5 44t47 74t18 104.5q0 66 -20.5 120t-55 92.5t-79 59.5t-92.5 21q-27 0 -63 -12t-68 -40t-54 -74.5t-22 -115.5z" />
    <glyph glyph-name="R" unicode="R" horiz-adv-x="611" 
d="M54 8q29 5 40 13t11 29v528q0 21 -11 29t-40 13v14h290q50 0 84.5 -12t55.5 -33t30.5 -48.5t9.5 -58.5q0 -38 -15 -68.5t-40 -52t-58 -34t-69 -15.5l184 -238q23 -29 42.5 -46.5t41.5 -19.5v-14q-14 0 -26.5 3t-25.5 3q-20 0 -39 -3t-38 -3q-4 1 -9 6t-15.5 19t-29 39.5
t-48.5 67.5l-129 173q-9 12 -14.5 19t-5.5 10q0 5 6.5 7.5t12.5 2.5q78 0 127.5 32.5t49.5 98.5q0 36 -14.5 57.5t-38.5 33t-54.5 15t-61.5 3.5h-54v-528q0 -21 11 -29t40 -13v-14q-16 0 -43.5 3t-56.5 3t-56.5 -3t-43.5 -3v14z" />
    <glyph glyph-name="S" unicode="S" horiz-adv-x="556" 
d="M74 186q18 -72 70 -109t126 -37q27 0 55 7.5t50.5 23t36.5 40t14 57.5q0 30 -8.5 49t-24 31t-37 18.5t-47.5 11.5q-65 13 -114 26.5t-83 34t-51 50.5t-17 76q0 37 19 70.5t53.5 59t83.5 40.5t109 15q16 0 38.5 -2t46.5 -6t45.5 -10.5t35.5 -14.5q-1 -35 0.5 -69.5
t3.5 -69.5h-20q-5 33 -22 55t-40 35.5t-50.5 19.5t-53.5 6q-81 0 -122 -33t-41 -81q0 -27 8 -43.5t27 -28t50 -19.5t77 -17q47 -9 87 -20.5t69.5 -31t46.5 -50.5t17 -81q0 -42 -16 -79t-49 -65t-84 -44.5t-121 -16.5q-47 0 -93 10.5t-89 36.5q0 77 -6 155h20z" />
    <glyph glyph-name="T" unicode="T" horiz-adv-x="556" 
d="M166 8q38 5 50.5 18.5t12.5 39.5v512h-92q-21 0 -37 -4t-28 -16t-21 -33t-16 -55h-20q5 42 9.5 82t6.5 82h494q2 -42 6.5 -82t9.5 -82h-20q-7 34 -16 55t-21 33t-28 16t-37 4h-92v-512q0 -26 12.5 -39.5t50.5 -18.5v-14q-29 0 -59 3t-53 3t-53 -3t-59 -3v14z" />
    <glyph glyph-name="U" unicode="U" horiz-adv-x="667" 
d="M479 583q0 13 -6 21.5t-15 13t-19 6.5t-18 2v14q23 0 49.5 -3t64.5 -3q20 0 43 3t46 3v-14q-15 -2 -24.5 -3.5t-14.5 -7t-6.5 -15t-1.5 -25.5v-364q0 -117 -64 -172t-180 -55q-115 0 -179 55t-64 172v364q0 16 -1.5 25.5t-6.5 15t-14.5 7t-24.5 3.5v14q23 0 46 -3t43 -3
q38 0 64.5 3t49.5 3v-14q-8 0 -18 -2t-19 -6.5t-15 -13t-6 -21.5v-391q0 -40 11.5 -69.5t31 -49t46 -29.5t56.5 -10q31 0 57.5 10t46 29.5t31 49t11.5 69.5v391z" />
    <glyph glyph-name="V" unicode="V" horiz-adv-x="611" 
d="M65 581q-7 17 -17.5 29.5t-44.5 15.5v14q30 0 60.5 -3t60.5 -3q22 0 43 3t44 3v-14q-29 -1 -40 -8t-11 -21q0 -8 4 -21.5t7 -21.5l160 -444h2l143 430q6 19 9.5 33t3.5 23q0 15 -16 21t-31 9v14q23 0 45.5 -3t45.5 -3q19 0 37.5 3t37.5 3v-14q-24 -3 -38 -17t-22 -37
l-196 -578h-67z" />
    <glyph glyph-name="W" unicode="W" horiz-adv-x="833" 
d="M56 562q-9 27 -21.5 44t-40.5 20v14q23 0 45 -3t45 -3q28 0 55.5 3t55.5 3v-14q-17 -1 -34.5 -6t-17.5 -20q0 -9 2.5 -21.5t9.5 -32.5l143 -436h2q12 39 28 89t30.5 96.5t24.5 81t10 41.5t-7 30t-16.5 50t-18 51t-11.5 32q-10 26 -30 33t-48 12v14q35 0 69.5 -3t69.5 -3
q24 0 48 3t47 3v-14q-30 -1 -44.5 -10t-14.5 -22q0 -8 3 -21t11 -37l137 -432h2l123 419q6 20 10 37.5t4 23.5q0 16 -11 26.5t-51 15.5v14q23 0 46.5 -3t46.5 -3q20 0 40.5 3t40.5 3v-14q-24 -5 -36 -20.5t-22 -48.5l-172 -563h-74l-112 361h-2l-103 -361h-71z" />
    <glyph glyph-name="X" unicode="X" horiz-adv-x="611" 
d="M-4 8q16 4 30 12.5t31 26.5t38.5 46.5t52.5 71.5l112 158l-172 260q-9 13 -23.5 27t-45.5 16v14q32 0 62.5 -3t61.5 -3q27 0 53.5 3t53.5 3v-14q-6 0 -14.5 -1.5t-16.5 -4.5t-13.5 -8t-5.5 -13q0 -5 4 -16t10.5 -23.5t13.5 -25t13 -21.5l72 -109l102 148q11 17 15.5 29
t4.5 24q0 8 -11 13.5t-38 7.5v14q27 0 53.5 -3t53.5 -3q22 0 44 3t44 3v-14q-20 -2 -38 -13t-29 -28l-150 -215q-3 -5 -6 -9t-3 -8t3 -8t6 -9l184 -277q14 -20 28 -33.5t39 -17.5v-14q-24 0 -47.5 3t-47.5 3q-36 0 -71.5 -3t-71.5 -3v14q37 3 51 11t14 22q0 4 -2.5 11
t-10.5 21t-23.5 38t-40.5 63l-68 105l-105 -152q-15 -22 -25 -36.5t-16 -24.5t-8 -16t-2 -12q0 -17 15 -22.5t45 -7.5v-14q-26 0 -52.5 3t-52.5 3q-25 0 -49.5 -3t-50.5 -3v14z" />
    <glyph glyph-name="Y" unicode="Y" horiz-adv-x="556" 
d="M173 8q38 5 50.5 18.5t12.5 39.5v179l-180 330q-12 22 -25 34t-40 17v14q27 0 53.5 -3t52.5 -3t51.5 3t51.5 3v-14q-47 -1 -47 -23q0 -8 2.5 -16.5t9.5 -22.5l136 -266l127 268q5 12 6 20t1 14q0 13 -11 18.5t-37 7.5v14q20 0 47 -3t51 -3q18 0 37 3t43 3v-14
q-14 -1 -24.5 -4.5t-18.5 -11.5t-15.5 -20.5t-16.5 -30.5l-156 -314v-179q0 -26 12.5 -39.5t50.5 -18.5v-14q-29 0 -59 3t-53 3t-53 -3t-59 -3v14z" />
    <glyph glyph-name="Z" unicode="Z" horiz-adv-x="556" 
d="M371 578h-172q-55 0 -81 -30.5t-41 -80.5h-15q5 42 9.5 85.5t4.5 81.5h435l-341 -578h219q31 0 52 7.5t35.5 23t23.5 40t18 58.5h16q-5 -47 -8 -95.5t-3 -89.5h-495z" />
    <glyph glyph-name="bracketleft" unicode="[" horiz-adv-x="333" 
d="M108 -130v768l137 12v-14q-33 -3 -45 -18t-12 -51v-626q0 -36 12 -51t45 -18v-14z" />
    <glyph glyph-name="backslash" unicode="\" horiz-adv-x="278" 
d="M-17 650l45 18l267 -684l-44 -17z" />
    <glyph glyph-name="bracketright" unicode="]" horiz-adv-x="333" 
d="M88 -128q33 3 45 18t12 51v626q0 36 -12 51t-45 18v14l137 -12v-768l-137 -12v14z" />
    <glyph glyph-name="asciicircum" unicode="^" 
d="M224 652h52l152 -345h-58l-119 281h-2l-119 -281h-58z" />
    <glyph glyph-name="underscore" unicode="_" 
d="M0 -75h500v-50h-500v50z" />
    <glyph glyph-name="grave" unicode="`" 
d="M139 618q-15 9 -28 21.5t-13 26.5q0 11 10.5 25t30.5 14q9 0 21 -7.5t38 -34.5l129 -134h-46z" />
    <glyph glyph-name="a" unicode="a" 
d="M355 89h-2q-26 -55 -66.5 -80t-100.5 -25q-66 0 -106.5 33.5t-40.5 101.5q0 122 155 143l141 19q14 2 17 13t3 22q0 54 -28 79t-81 25q-51 0 -87 -18.5t-59 -62.5h-11l6 109q36 15 74.5 21.5t76.5 6.5q41 0 75.5 -9t60 -30t39.5 -54t14 -81v-236q0 -25 6.5 -40.5
t34.5 -17.5v-14q-16 2 -31 4t-31 2q-14 0 -29 -2l-30 -4v95zM350 235l-126 -22q-53 -9 -76 -31t-23 -58q0 -42 25.5 -60t64.5 -18q36 0 61.5 17t42 42t24 54.5t7.5 55.5v20z" />
    <glyph glyph-name="b" unicode="b" horiz-adv-x="611" 
d="M83 -6q2 21 4.5 42.5t2.5 42.5v557q0 17 -8 23.5t-28 12.5l-23 5v8q18 5 38.5 10.5t40.5 11.5t38.5 12t32.5 11q-2 -35 -3.5 -70.5t-1.5 -70.5v-192h3q29 40 72.5 59.5t91.5 19.5q44 0 84 -16t71 -46.5t49 -75t18 -101.5q0 -48 -16.5 -93.5t-47.5 -81t-74.5 -57
t-98.5 -21.5q-57 0 -103.5 16t-80.5 52l-48 -58h-13zM473 227q0 50 -12 85.5t-31.5 58t-46 33t-54.5 10.5q-75 0 -114 -51t-39 -136q0 -97 37 -142t103 -45q39 0 68.5 16t49 42t29.5 60t10 69z" />
    <glyph glyph-name="c" unicode="c" horiz-adv-x="444" 
d="M424 43q-35 -30 -74 -44.5t-76 -14.5q-58 0 -102 18.5t-73.5 51.5t-44.5 79t-15 100q0 52 20 96.5t53.5 77t77 51t91.5 18.5q36 0 66.5 -6t59.5 -14q-2 -32 -2 -62.5t2 -59.5h-14q-13 42 -43 67t-74 25q-26 0 -53 -10.5t-48.5 -34t-35.5 -61t-14 -91.5q0 -44 14 -78
t36.5 -57.5t52 -35.5t61.5 -12q40 0 77.5 18t66.5 43z" />
    <glyph glyph-name="d" unicode="d" horiz-adv-x="611" 
d="M440 73h-2q-34 -52 -77 -70.5t-101 -18.5q-28 0 -65 12t-70 40t-56 73t-23 111t23.5 114t59.5 79.5t79 47t82 15.5q90 0 148 -79h2v239q0 17 -8 23.5t-28 12.5l-23 5v8q18 5 38.5 10.5t40.5 11.5t38.5 12t32.5 11q-2 -35 -3.5 -70.5t-1.5 -70.5v-549q0 -14 7.5 -21.5
t38.5 -10.5v-14q-17 2 -33.5 4t-33.5 2t-33.5 -2t-31.5 -4v79zM289 414q-24 0 -51 -8.5t-49 -29.5t-36.5 -57.5t-14.5 -92.5q0 -38 12 -71.5t33 -59t50 -40.5t64 -15q30 0 56.5 11t45.5 34t30 58t11 83q0 53 -13 89t-34.5 58t-48.5 31.5t-55 9.5z" />
    <glyph glyph-name="e" unicode="e" horiz-adv-x="556" 
d="M479 53q-36 -32 -88 -50.5t-117 -18.5q-53 0 -96 18.5t-74 51.5t-48 79t-17 100q0 52 18 96.5t50.5 77t76.5 51t97 18.5q57 0 99.5 -16t71 -46t43 -72t14.5 -94h-378q0 -43 13.5 -79t39 -62t61 -40.5t79.5 -14.5q19 0 35.5 2.5t34.5 9.5t40 20t52 34zM411 298
q0 58 -34.5 93t-94.5 35q-28 0 -53 -9.5t-44.5 -27t-32 -41t-15.5 -50.5h274z" />
    <glyph glyph-name="f" unicode="f" horiz-adv-x="278" 
d="M36 8q21 2 37.5 11t16.5 27v370h-57v26q19 2 30.5 5.5t18 12t8.5 23.5t2 41q0 62 18.5 99.5t43.5 57t49.5 25.5t36.5 6q15 0 29.5 -1.5t29.5 -3.5l4 -72h-10q-3 14 -16.5 20.5t-26.5 6.5q-20 0 -34 -7t-23 -18t-13 -24.5t-4 -26.5v-120h110v-50h-110v-370q0 -18 16.5 -27
t37.5 -11v-14q-26 2 -48 4t-49 2t-49 -2t-48 -4v14z" />
    <glyph glyph-name="g" unicode="g" 
d="M160 -14q-4 -10 -6.5 -20.5t-2.5 -21.5q0 -22 9.5 -39.5t25 -29.5t35.5 -18t41 -6t45 5t45 16t35 29t14 44q0 35 -19.5 44t-54.5 9h-154q-32 0 -59 4.5t-47.5 16t-32.5 31t-13 48.5q0 11 1 22.5t6 21.5l87 54q-21 24 -33.5 53.5t-12.5 61.5q0 28 10.5 57t33 53t58 39.5
t84.5 15.5q23 0 45 -2l44 -4q23 -3 45 -5.5t45 -2.5q27 0 54 6l-12 -50q-20 -6 -40 -6q-29 0 -50 7l-2 -2q23 -20 35 -48t12 -60q0 -30 -11 -59t-34 -51.5t-60 -36t-89 -13.5q-48 0 -93 25q-30 -21 -39.5 -32.5t-9.5 -25.5q0 -12 14.5 -25t44.5 -13h165q48 0 79.5 -10
t49.5 -26.5t25.5 -37.5t7.5 -42q0 -33 -17 -61t-46.5 -49t-70 -33t-88.5 -12q-26 0 -57 3.5t-57.5 15t-44 32t-17.5 53.5q0 13 2.5 22.5t9.5 23.5zM155 336q0 -23 5.5 -47t18 -44t31.5 -33t46 -13q22 0 38 8.5t26 22.5t14.5 32t4.5 37q0 22 -5.5 44.5t-17.5 41t-31.5 30
t-46.5 11.5q-39 0 -61 -27t-22 -63z" />
    <glyph glyph-name="h" unicode="h" horiz-adv-x="556" 
d="M36 8q21 2 37.5 11t16.5 27v590q0 17 -8 23.5t-28 12.5l-23 5v8q18 5 38.5 10.5t40.5 11.5t38.5 12t32.5 11q-2 -35 -3.5 -70.5t-1.5 -70.5v-193h2q20 37 53.5 58.5t74.5 21.5q72 0 116 -42.5t44 -133.5v-245q0 -23 8.5 -33.5t37.5 -13.5v-14q-14 2 -33 4t-36 2
q-13 0 -34 -2t-35 -4q2 15 4 31.5t2 33.5v257q0 28 -6.5 46.5t-18 30t-27 16.5t-33.5 5q-25 0 -46.5 -10.5t-37.5 -29t-25.5 -45t-9.5 -58.5v-225q0 -18 16.5 -27t37.5 -11v-14q-26 2 -48 4t-49 2t-49 -2t-48 -4v14z" />
    <glyph glyph-name="i" unicode="i" horiz-adv-x="278" 
d="M42 8q21 2 37.5 11t16.5 27v336q0 19 -9.5 26t-34.5 12l-16 3v8q39 10 77 21.5t74 23.5q-2 -24 -3.5 -50.5t-1.5 -50.5v-329q0 -18 16.5 -27t37.5 -11v-14q-26 2 -48 4t-49 2t-49 -2t-48 -4v14zM83 603q0 24 17 41t41 17t41 -17t17 -41t-17 -41t-41 -17t-41 17t-17 41z
" />
    <glyph glyph-name="j" unicode="j" horiz-adv-x="278" 
d="M39 -151q32 6 43.5 16t13.5 43v474q0 19 -9.5 26t-34.5 12l-16 3v8q39 10 77 21.5t74 23.5q-2 -24 -3.5 -50.5t-1.5 -50.5v-413q0 -37 -9.5 -62t-28 -41t-45 -24.5t-60.5 -11.5v26zM83 603q0 24 17 41t41 17t41 -17t17 -41t-17 -41t-41 -17t-41 17t-17 41z" />
    <glyph glyph-name="k" unicode="k" 
d="M36 8q21 2 37.5 11t16.5 27v590q0 17 -8 23.5t-28 12.5l-23 5v8q18 5 38.5 10.5t40.5 11.5t38.5 12t32.5 11q-2 -35 -3.5 -70.5t-1.5 -70.5v-543q0 -18 16.5 -27t37.5 -11v-14q-26 2 -48 4t-49 2t-49 -2t-48 -4v14zM511 -6q-12 2 -29 2.5t-31 0.5t-29.5 -0.5t-31.5 -2.5
q-42 53 -91.5 119.5t-119.5 144.5q29 30 55.5 58.5t47 52.5t32.5 41t12 23q0 9 -9 13t-33 6v14q25 -2 49.5 -4t49.5 -2q20 0 38.5 2t38.5 4l-189 -196q14 -17 30.5 -36.5t37.5 -45t48 -60l63 -80.5q9 -12 16 -19.5t13.5 -12t13.5 -6t18 -2.5v-14z" />
    <glyph glyph-name="l" unicode="l" horiz-adv-x="278" 
d="M42 8q21 2 37.5 11t16.5 27v590q0 17 -8 23.5t-28 12.5l-23 5v8q18 5 38.5 10.5t40.5 11.5t38.5 12t32.5 11q-2 -35 -3.5 -70.5t-1.5 -70.5v-543q0 -18 16.5 -27t37.5 -11v-14q-26 2 -48 4t-49 2t-49 -2t-48 -4v14z" />
    <glyph glyph-name="m" unicode="m" horiz-adv-x="832" 
d="M36 8q21 2 37.5 11t16.5 27v332q0 26 -10 34.5t-36 10.5v8q33 10 70.5 22.5t64.5 22.5q-2 -17 -2.5 -39.5t-0.5 -40.5h2q20 37 51.5 58.5t79.5 21.5q49 0 80 -22.5t48 -73.5q20 50 59 73t97 23q44 0 72.5 -16t45.5 -43t24 -63t7 -76v-223q0 -23 8.5 -33.5t37.5 -13.5v-14
q-14 2 -33 4t-36 2q-13 0 -34 -2t-35 -4q2 15 4 31.5t2 33.5v254q0 29 -7 48.5t-18.5 31t-27 16.5t-32.5 5q-29 0 -50 -11t-35 -29t-20.5 -41t-6.5 -48v-239q0 -18 16.5 -27t37.5 -11v-14q-26 2 -48 4t-49 2t-49 -2t-48 -4v14q21 2 37.5 11t16.5 27v267q0 29 -7 48.5t-18 31
t-25.5 16.5t-29.5 5q-24 0 -45.5 -11.5t-37 -31t-25 -45.5t-9.5 -55v-225q0 -18 16.5 -27t37.5 -11v-14q-26 2 -48 4t-49 2t-49 -2t-48 -4v14z" />
    <glyph glyph-name="n" unicode="n" horiz-adv-x="556" 
d="M36 8q21 2 37.5 11t16.5 27v332q0 26 -10 34.5t-36 10.5v8q33 10 70.5 22.5t64.5 22.5q-2 -17 -2.5 -39.5t-0.5 -40.5h2q20 37 53.5 58.5t74.5 21.5q72 0 116 -42.5t44 -133.5v-245q0 -23 8.5 -33.5t37.5 -13.5v-14q-14 2 -33 4t-36 2q-13 0 -34 -2t-35 -4q2 15 4 31.5
t2 33.5v257q0 28 -6.5 46.5t-18 30t-27 16.5t-33.5 5q-25 0 -46.5 -10.5t-37.5 -29t-25.5 -45t-9.5 -58.5v-225q0 -18 16.5 -27t37.5 -11v-14q-26 2 -48 4t-49 2t-49 -2t-48 -4v14z" />
    <glyph glyph-name="o" unicode="o" horiz-adv-x="556" 
d="M39 233q0 52 18 96.5t50.5 77t76.5 51t97 18.5q57 0 101 -21t74 -55.5t45.5 -79t15.5 -90.5q0 -59 -18.5 -105t-51 -77.5t-77 -47.5t-96.5 -16q-53 0 -96 18.5t-74 51.5t-48 79t-17 100zM125 251q0 -38 10 -76t30 -68t50.5 -48.5t72.5 -18.5q36 0 63 14.5t45 38.5
t26.5 55t8.5 63q0 33 -8 70t-26 67.5t-47.5 51t-72.5 20.5q-25 0 -51.5 -9t-49 -29t-37 -52t-14.5 -79z" />
    <glyph glyph-name="p" unicode="p" horiz-adv-x="611" 
d="M36 -169q21 2 37.5 11t16.5 27v513q0 19 -9.5 26t-34.5 12l-15 3v8q75 18 150 45l-5 -79h3q29 40 72.5 59.5t91.5 19.5q44 0 84 -16t71 -46.5t49 -75t18 -101.5q0 -48 -16.5 -93.5t-47.5 -81t-74.5 -57t-98.5 -21.5q-25 0 -48.5 6t-43 15.5t-34.5 21.5t-23 25h-3v-183
q0 -18 17 -27t43 -11v-14q-26 2 -48 4t-49 2q-32 0 -54.5 -2t-48.5 -4v14zM176 227q0 -97 37 -142t103 -45q39 0 68.5 16t49 42t29.5 60t10 69q0 50 -12 85.5t-31.5 58t-46 33t-54.5 10.5q-75 0 -114 -51t-39 -136z" />
    <glyph glyph-name="q" unicode="q" horiz-adv-x="611" 
d="M384 -169q23 2 39.5 11t16.5 27v182q-17 -19 -35 -32t-39 -20.5t-47 -11t-59 -3.5q-28 0 -65 12t-70 40t-56 73t-23 111t23.5 114t59.5 79.5t79 47t82 15.5q52 0 93.5 -15.5t75.5 -50.5l67 66v-607q0 -18 17 -27t41 -11v-14q-26 2 -48.5 4t-51.5 2t-51.5 -2t-48.5 -4v14z
M138 226q0 -38 12 -71.5t33 -59t50 -40.5t64 -15q30 0 56.5 11t45.5 34t30 58t11 83q0 53 -13 89t-34.5 58t-48.5 31.5t-55 9.5q-24 0 -51 -8.5t-49 -29.5t-36.5 -57.5t-14.5 -92.5z" />
    <glyph glyph-name="r" unicode="r" horiz-adv-x="333" 
d="M36 8q21 2 37.5 11t16.5 27v332q0 26 -10 34.5t-36 10.5v8q33 10 70.5 22.5t64.5 22.5q-2 -17 -2.5 -40.5t-0.5 -49.5h2q20 37 53.5 58.5t70.5 21.5q15 0 24 -2.5t15 -5.5q2 -17 3 -37.5t1 -46.5q-18 11 -30.5 17.5t-34.5 6.5q-24 0 -43 -10t-32.5 -27t-21 -39.5
t-7.5 -46.5v-229q0 -18 16.5 -27t37.5 -11v-14q-26 2 -48 4t-49 2t-49 -2t-48 -4v14z" />
    <glyph glyph-name="s" unicode="s" horiz-adv-x="444" 
d="M43 123h12q13 -28 30.5 -45.5t38 -27t43.5 -13t47 -3.5q57 0 86.5 21.5t29.5 54.5q0 19 -6 31.5t-21.5 21.5t-43.5 16t-72 16q-71 14 -109 45t-38 85q0 67 54.5 109t151.5 42q33 0 66 -7t65 -12v-112h-14q-14 41 -47 61t-76 20q-54 0 -87 -21.5t-33 -61.5q0 -35 32 -49
t98 -26q39 -8 68 -17.5t48 -24.5t28.5 -37.5t9.5 -55.5q0 -71 -54.5 -110t-153.5 -39q-38 0 -75 9t-70 26z" />
    <glyph glyph-name="t" unicode="t" horiz-adv-x="333" 
d="M307 7q-23 -11 -46.5 -17t-48.5 -6q-68 0 -95 30t-27 95v307h-65v50h65v79q29 10 50 28t36 38v-145h136v-50h-136v-298q0 -17 2 -32.5t8 -27t16.5 -18t27.5 -6.5q45 0 86 30z" />
    <glyph glyph-name="u" unicode="u" horiz-adv-x="556" 
d="M512 -6q-14 2 -33 4t-36 2q-13 0 -34 -2t-35 -4q2 15 4 31.5t2 33.5v28h-2q-18 -49 -55 -76t-92 -27q-24 0 -49.5 7.5t-45.5 24.5t-33 44.5t-13 68.5v249q0 26 -10 34.5t-36 10.5v8q33 10 70.5 22.5t64.5 22.5q-2 -17 -2.5 -40.5t-0.5 -49.5v-275q0 -12 3.5 -23.5
t12 -20.5t22 -15t33.5 -6q66 0 99.5 54.5t33.5 149.5v128q0 26 -10 34.5t-36 10.5v8q33 10 70.5 22.5t64.5 22.5q-2 -17 -2.5 -40.5t-0.5 -49.5v-331q0 -23 8.5 -33.5t37.5 -13.5v-14z" />
    <glyph glyph-name="v" unicode="v" 
d="M45 423q-6 14 -16 20t-24 9v14q29 -2 57 -4t57 -2q20 0 40 2l40 4v-14q-51 -1 -51 -21q0 -8 4.5 -22.5t21.5 -54.5l99 -247h1l99 266q5 11 9 25t4 21q0 12 -8.5 20.5t-42.5 12.5v14q24 -2 47.5 -4t46.5 -2q17 0 33 2t33 4v-14q-18 -3 -30 -17t-25 -46l-152 -395h-61z" />
    <glyph glyph-name="w" unicode="w" horiz-adv-x="667" 
d="M46 403q-8 23 -17.5 33.5t-31.5 15.5v14q24 -2 46 -4t46 -2q26 0 45.5 2t36.5 4v-14q-14 0 -27 -5t-13 -24q0 -9 21 -72l84 -253h2l65 204q10 33 10 39q0 3 -2 9t-4 13l-20 59q-5 16 -20 22t-29 8v14q24 -2 48.5 -4t48.5 -2q21 0 42 2l42 4v-14q-26 0 -33.5 -6t-7.5 -14
q0 -14 9 -44l92 -283h2l77 270q5 17 8.5 31t3.5 23q0 11 -9 16t-24 7v14q36 -6 67 -6q16 0 32 2t34 4v-14q-11 -2 -18.5 -5.5t-13.5 -12t-11.5 -23.5t-12.5 -39l-121 -378h-60l-91 288h-2l-90 -288h-64z" />
    <glyph glyph-name="x" unicode="x" horiz-adv-x="444" 
d="M-1 8q17 2 28.5 9t23.5 25l125 184l-106 171q-11 17 -18 27t-13.5 16t-13 8t-15.5 4v14q24 -2 48.5 -4t48.5 -2q22 0 43 2t44 4v-14q-26 -2 -33 -7.5t-7 -12.5q0 -12 28 -56l50 -80l72 114q9 13 9 25q0 9 -6 13t-25 4v14q19 -2 38.5 -4t39.5 -2q14 0 29 2t29 4v-14
q-23 -2 -38.5 -18.5t-26.5 -33.5l-94 -143l136 -217q5 -9 16 -18.5t34 -13.5v-14q-29 2 -54.5 4t-49.5 2q-23 0 -45.5 -2t-49.5 -4v14q29 0 38 6t9 17q0 8 -9.5 26t-34.5 56l-49 75l-56 -92q-20 -32 -28.5 -47.5t-8.5 -21.5q0 -8 6.5 -12.5t35.5 -6.5v-14q-17 2 -32.5 4
t-32.5 2q-21 0 -42.5 -2t-42.5 -4v14z" />
    <glyph glyph-name="y" unicode="y" 
d="M79 -74h11q5 -17 13 -31t29 -14q40 -3 66 37q15 23 24 40.5t9 31.5q0 5 -13.5 36.5t-42.5 103.5l-122 299q-5 13 -19.5 17.5t-26.5 5.5v14q29 -2 52 -4t49 -2q27 0 50.5 2t44.5 4v-14q-7 -1 -15 -2.5t-15 -4.5t-11.5 -8t-4.5 -14q0 -4 1.5 -9.5t6 -19t13.5 -38t25 -64.5
l75 -194h2l37 108q23 66 36.5 105.5t20.5 61t9 30t2 12.5q0 20 -12.5 27.5t-29.5 9.5v14q22 -2 43.5 -4t44.5 -2q16 0 31 2t31 4v-14q-25 -2 -34 -15t-17 -35l-152 -407q-15 -42 -29 -69.5t-28 -54.5q-7 -13 -18.5 -24.5t-25.5 -20.5t-29 -14t-28 -5q-27 0 -47 7z" />
    <glyph glyph-name="z" unicode="z" horiz-adv-x="444" 
d="M280 410h-131q-33 0 -59 -15t-35 -53h-14q2 15 4.5 31.5t5 32.5t4 30t2.5 24h349l-253 -410h140q27 0 46.5 3.5t33.5 13.5t23 27.5t14 46.5h14q-3 -35 -5 -70.5t-3 -70.5h-390z" />
    <glyph glyph-name="braceleft" unicode="{" horiz-adv-x="333" 
d="M278 -142q-44 0 -72 9t-45 27.5t-23.5 47.5t-6.5 68v120q0 24 -2.5 43.5t-11 35t-23.5 26.5t-39 19q24 8 39 19t23.5 26.5t11 35t2.5 43.5v120q0 39 6.5 68t23.5 47.5t45 27.5t72 9v-14q-23 -6 -37 -19t-22 -30t-11 -38t-3 -45v-110q0 -26 -2 -48t-10.5 -40t-24 -31
t-42.5 -20v-2q27 -8 42.5 -20.5t24 -30.5t10.5 -40t2 -48v-110q0 -24 3 -45t11 -38.5t22 -30t37 -18.5v-14z" />
    <glyph glyph-name="bar" unicode="|" 
d="M222 730h56v-746h-56v746z" />
    <glyph glyph-name="braceright" unicode="}" horiz-adv-x="333" 
d="M55 -128q23 6 37 18.5t22 30t11 38.5t3 45v110q0 26 2 48t10.5 40t24 30.5t42.5 20.5v2q-27 7 -42.5 20t-24 31t-10.5 40t-2 48v110q0 24 -3 45t-11 38t-22 30t-37 19v14q43 0 71.5 -9t45.5 -27.5t23.5 -47.5t6.5 -68v-120q0 -24 2.5 -43.5t11 -35t23.5 -26.5t39 -19
q-24 -8 -39 -19t-23.5 -26.5t-11 -35t-2.5 -43.5v-120q0 -39 -6.5 -68t-23.5 -47.5t-45.5 -27.5t-71.5 -9v14z" />
    <glyph glyph-name="asciitilde" unicode="~" 
d="M52 274q1 63 30.5 92t67.5 29q22 0 49 -10t54 -22.5t52 -22.5t45 -10q43 0 48 64h50q-2 -35 -10 -58t-20.5 -37t-29.5 -20t-36 -6q-23 0 -50 10t-53 22.5t-50.5 22.5t-43.5 10q-46 0 -51 -64h-52z" />
    <glyph glyph-name="uni00A0" unicode="&#xa0;" horiz-adv-x="250" 
 />
    <glyph glyph-name="exclamdown" unicode="&#xa1;" horiz-adv-x="334" 
d="M145 305h44l26 -466h-92zM112 434q0 23 16 39t39 16t39 -16t16 -39t-16 -39t-39 -16t-39 16t-16 39z" />
    <glyph glyph-name="cent" unicode="&#xa2;" 
d="M249 -16q-47 5 -85 25t-65 51t-41.5 72.5t-14.5 90.5q0 47 14.5 88.5t41.5 73.5t65 54.5t85 32.5v98h50v-94q63 0 122 -21q-1 -31 0.5 -61t3.5 -61h-14q-13 42 -45 64.5t-78 22.5q-20 0 -46.5 -8.5t-50 -29t-40 -54.5t-16.5 -86q0 -45 13.5 -80.5t36.5 -60t53.5 -37
t63.5 -12.5q44 0 83.5 18t71.5 43l-17 -65q-32 -29 -69 -44.5t-72 -19.5v-112h-50v112z" />
    <glyph glyph-name="sterling" unicode="&#xa3;" 
d="M145 95q23 41 30 65t7 42q0 24 -9 50t-18 50h-102v62h79q-17 42 -17 85q0 32 13.5 67.5t40.5 65t68 49t97 19.5q26 0 50 -7t43 -19q0 -68 6 -137h-11q-14 43 -48 69t-80 26q-39 0 -66 -25.5t-27 -79.5q0 -32 8 -58t19 -55h157v-62h-139q4 -9 7 -23.5t3 -26.5
q0 -19 -7.5 -42t-19 -46.5t-26 -45t-27.5 -38.5h181q24 0 40 5t26.5 15t17 25t11.5 36h13q-4 -41 -6.5 -80.5t-3.5 -80.5h-365z" />
    <glyph glyph-name="currency" unicode="&#xa4;" 
d="M20 125l51 52q-49 64 -49 140q0 38 11.5 74.5t39.5 65.5l-53 52l37 37l53 -51q29 25 66.5 37.5t77.5 12.5q36 0 71.5 -12.5t64.5 -37.5l51 52l39 -39l-51 -49q26 -29 37.5 -66.5t11.5 -75.5t-11.5 -73.5t-36.5 -67.5l50 -51l-37 -37l-50 53q-30 -26 -66.5 -39t-74.5 -13
q-40 0 -76.5 12.5t-67.5 39.5l-51 -53zM84 317q0 -36 13 -67t35.5 -54.5t53.5 -37t66 -13.5t65 14t52 37.5t34.5 54.5t12.5 66q0 34 -12.5 65.5t-34.5 55t-51.5 37.5t-63.5 14q-36 0 -67 -13.5t-54 -37t-36 -55t-13 -66.5z" />
    <glyph glyph-name="yen" unicode="&#xa5;" 
d="M159 8q23 5 39 12.5t16 30.5v96h-158v50h158v52l-13 28h-145v50h121l-116 248q-12 22 -25 34t-39 17v14q26 -2 52.5 -4t52.5 -2q21 0 46 2t51 4v-14q-47 -1 -47 -23q0 -8 2.5 -16.5t9.5 -22.5l106 -266l97 268q5 12 6 20t1 14q0 13 -11 18.5t-37 7.5v14q20 -2 47 -5
t51 -1q18 2 37 3t42 3v-14q-28 -2 -43.5 -15.5t-30.5 -51.5l-97 -232h126v-50h-146l-12 -28v-52h158v-50h-158v-85q0 -12 1.5 -20.5t7.5 -14.5t18 -10.5t32 -8.5v-14q-27 2 -50 4t-50 2t-50 -2t-50 -4v14z" />
    <glyph glyph-name="brokenbar" unicode="&#xa6;" 
d="M222 259h56v-275h-56v275zM222 730h56v-275h-56v275z" />
    <glyph glyph-name="section" unicode="&#xa7;" 
d="M134 -95q15 -21 37 -34.5t50 -13.5q32 0 53 18t21 50q0 29 -17.5 50.5t-44 40.5t-57.5 38.5t-57.5 44.5t-44 58t-17.5 80q0 75 41.5 125t116.5 58q-15 12 -29 23.5t-25 24t-17.5 28t-6.5 36.5q0 22 7.5 43.5t23 38t41 26.5t61.5 10q17 0 35.5 -3.5t32.5 -10.5l7 -65
q-17 12 -33 20.5t-38 8.5q-29 0 -46 -15.5t-17 -38.5q0 -28 17 -48.5t43 -39t56 -37.5t56 -44.5t43 -60.5t17 -84q0 -71 -40 -116.5t-109 -56.5q37 -26 59 -56.5t22 -75.5q0 -30 -12.5 -52.5t-32.5 -37.5t-45.5 -22.5t-50.5 -7.5q-26 0 -51.5 8t-48.5 22v68zM387 216
q0 30 -13.5 59t-36 51.5t-52 36t-61.5 13.5q-46 0 -78.5 -32.5t-32.5 -90.5q0 -39 19 -67.5t44.5 -47t52 -27t41.5 -8.5q36 0 58.5 12.5t35.5 30.5t18 37.5t5 32.5z" />
    <glyph glyph-name="dieresis" unicode="&#xa8;" 
d="M96 595q0 22 15 37t37 15t37 -15t15 -37t-15 -37t-37 -15t-37 15t-15 37zM300 595q0 22 15 37t37 15t37 -15t15 -37t-15 -37t-37 -15t-37 15t-15 37z" />
    <glyph glyph-name="copyright" unicode="&#xa9;" horiz-adv-x="800" 
d="M67 316q0 69 26 129.5t71.5 106t106 71.5t129.5 26t129.5 -26t106 -71.5t71.5 -106t26 -129.5t-26 -129.5t-71.5 -106t-106 -71.5t-129.5 -26t-129.5 26t-106 71.5t-71.5 106t-26 129.5zM118 316q0 -61 21.5 -114.5t59 -93.5t89 -63.5t112.5 -23.5t112.5 23.5t89 63.5
t59 93.5t21.5 114.5t-21.5 114.5t-59 93.5t-89 63.5t-112.5 23.5t-112.5 -23.5t-89 -63.5t-59 -93.5t-21.5 -114.5zM535 167q-24 -24 -58.5 -35.5t-72.5 -11.5q-29 0 -61 11t-59 34.5t-45 60.5t-18 88q0 54 21 92t52 62t67 35t67 11q23 0 46.5 -4t44.5 -15q1 -22 2 -43.5
t4 -44.5h-8q-5 20 -15.5 33.5t-25 21.5t-31 11.5t-32.5 3.5q-30 0 -55 -10t-43.5 -29t-29 -45t-10.5 -58q0 -35 11.5 -66.5t31.5 -56t47 -39t58 -14.5t60 11.5t53 28.5z" />
    <glyph glyph-name="ordfeminine" unicode="&#xaa;" horiz-adv-x="325" 
d="M222 415h-2q-16 -33 -42 -48t-63 -15q-45 0 -71.5 20.5t-26.5 62.5t25 64t75 29l95 12q7 1 8.5 7.5t1.5 12.5q0 23 -18 37.5t-50 14.5q-29 0 -55 -13.5t-40 -39.5h-10l4 75q45 16 105 16q28 0 51 -5.5t39.5 -18t26 -32.5t9.5 -50v-141q0 -15 3.5 -24t20.5 -11v-8
q-8 2 -17.5 3t-20.5 1q-10 0 -20.5 -1t-27.5 -3v55zM222 504l-79 -14q-35 -6 -49.5 -18t-14.5 -35q0 -21 16 -31t42 -10q21 0 37 10.5t26.5 25t16 30t5.5 26.5v16z" />
    <glyph glyph-name="guillemotleft" unicode="&#xab;" 
d="M167 253q0 -29 18 -64t39 -66.5t39 -54t18 -27.5q0 -3 -4.5 -6t-7.5 -3q-4 0 -19 11t-35 29.5t-42.5 42t-41.5 48t-31.5 48t-12.5 42.5q0 18 12.5 42t31.5 48.5t41.5 48t42.5 42t35 29.5t19 11q3 0 7.5 -3t4.5 -6q0 -5 -18 -27.5t-39 -54t-39 -66.5t-18 -64zM313 253
q0 -29 18 -64t39 -66.5t39 -54t18 -27.5q0 -3 -4.5 -6t-7.5 -3q-4 0 -19 11t-35 29.5t-42.5 42t-41.5 48t-31.5 48t-12.5 42.5q0 18 12.5 42t31.5 48.5t41.5 48t42.5 42t35 29.5t19 11q3 0 7.5 -3t4.5 -6q0 -5 -18 -27.5t-39 -54t-39 -66.5t-18 -64z" />
    <glyph glyph-name="logicalnot" unicode="&#xac;" 
d="M400 391h-354v51h408v-214h-54v163z" />
    <glyph glyph-name="uni00AD" unicode="&#xad;" horiz-adv-x="333" 
d="M58 290h161q25 0 40 8.5t20 31.5h14l-22 -114h-146q-24 0 -41 -8.5t-30 -35.5h-14z" />
    <glyph glyph-name="registered" unicode="&#xae;" horiz-adv-x="426" 
d="M36 472q0 37 14 69.5t38 56.5t56 38t69 14t69.5 -14t56.5 -38t38 -56.5t14 -69.5t-14 -69t-38 -56t-56.5 -38t-69.5 -14t-69 14t-56 38t-38 56t-14 69zM63 472q0 -32 11.5 -60.5t31.5 -50t47.5 -34t59.5 -12.5q33 0 60.5 12.5t47.5 34t31.5 50t11.5 60.5q0 33 -11.5 61.5
t-31.5 50t-47.5 34t-60.5 12.5q-32 0 -59.5 -12.5t-47.5 -34t-31.5 -50t-11.5 -61.5zM140 382q9 2 12.5 4t3.5 8v159q0 6 -3.5 8t-12.5 4v4h88q29 0 41 -13t12 -32q0 -23 -16.5 -36t-37.5 -16l54 -70q14 -19 26 -20v-4q-4 0 -8 0.5t-8 0.5q-5 0 -11 -0.5t-11 -0.5
q-3 1 -8 7.5t-23 32.5l-39 50q-2 5 -4 6.5t-2 3.5q0 1 2 1.5t3 0.5q24 0 39 10t15 29q0 23 -16 28.5t-35 5.5h-16v-159q0 -6 3 -8t12 -4v-4q-5 0 -13 0.5t-16 0.5q-9 0 -17.5 -0.5t-13.5 -0.5v4z" />
    <glyph glyph-name="macron" unicode="&#xaf;" 
d="M102 630h296v-62h-296v62z" />
    <glyph glyph-name="degree" unicode="&#xb0;" horiz-adv-x="400" 
d="M98 504q0 -21 8 -39.5t22 -32.5t32.5 -22t39.5 -8t39.5 8t32.5 22t22 32.5t8 39.5t-8 39.5t-22 32.5t-32.5 22t-39.5 8t-39.5 -8t-32.5 -22t-22 -32.5t-8 -39.5zM54 504q0 30 11.5 57t31 46.5t46.5 31t57 11.5t57 -11.5t46.5 -31t31 -46.5t11.5 -57t-11.5 -57t-31 -46.5
t-46.5 -31t-57 -11.5t-57 11.5t-46.5 31t-31 46.5t-11.5 57z" />
    <glyph glyph-name="plusminus" unicode="&#xb1;" 
d="M223 319h-177v51h177v195h54v-195h178v-51h-178v-201h-54v201zM46 51h409v-51h-409v51z" />
    <glyph glyph-name="uni00B2" unicode="&#xb2;" horiz-adv-x="332" 
d="M40 418q27 22 57.5 46.5t56 52t42.5 58.5t17 66q0 43 -19 61.5t-47 18.5q-38 0 -61.5 -19.5t-30.5 -44.5h-13q4 23 6 42.5t4 42.5q23 12 47.5 17t48.5 5q37 0 63 -11t42.5 -28t24.5 -37t8 -39q0 -35 -17 -65.5t-43.5 -57.5t-58.5 -50.5t-63 -42.5h190l-10 -60h-244v45z
" />
    <glyph glyph-name="uni00B3" unicode="&#xb3;" horiz-adv-x="332" 
d="M45 391q36 4 67 12t54.5 21t37 31.5t13.5 42.5q0 32 -37 49.5t-97 20.5l4 26q24 0 44.5 4t36.5 12.5t25 22.5t9 34q0 27 -16 44t-45 17q-20 0 -35 -6.5t-26 -17t-18.5 -23.5t-13.5 -25h-13q7 23 13 46.5t9 43.5q48 18 91 18q23 0 46 -5.5t41 -17t29 -29t11 -42.5
q0 -29 -23.5 -53t-72.5 -32v-2q58 -2 84.5 -21.5t26.5 -61.5q0 -33 -22.5 -58t-58 -42.5t-78 -26.5t-82.5 -9z" />
    <glyph glyph-name="acute" unicode="&#xb4;" 
d="M302 663q26 27 38 34.5t21 7.5q20 0 30.5 -14t10.5 -25q0 -14 -13 -26.5t-28 -21.5l-142 -89h-46z" />
    <glyph glyph-name="mu" unicode="&#xb5;" horiz-adv-x="556" 
d="M512 -6q-10 2 -26.5 2.5t-42.5 0.5q-53 0 -66 -3q3 30 3 65v28h-2q-18 -49 -55 -76t-92 -27q-16 0 -34 2.5t-28 10.5q0 -18 2 -33.5t5 -30t5 -29.5t2 -32q0 -35 -15.5 -50t-36.5 -15t-36.5 15t-15.5 50q0 21 1.5 38.5t4 38t4 49t1.5 72.5v308q0 26 -10 34.5t-36 10.5v8
q33 10 70.5 22.5t64.5 22.5q-2 -17 -2.5 -40.5t-0.5 -49.5v-275q0 -12 3.5 -23.5t12 -20.5t22 -15t33.5 -6q66 0 99.5 54.5t33.5 149.5v128q0 26 -10 34.5t-36 10.5v8q33 10 70.5 22.5t64.5 22.5q-2 -17 -2.5 -40.5t-0.5 -49.5v-331q0 -23 8.5 -33.5t37.5 -13.5v-14z" />
    <glyph glyph-name="paragraph" unicode="&#xb6;" horiz-adv-x="600" 
d="M192 -157q29 3 45.5 6t24.5 9.5t10 17.5t2 31v316q-51 0 -88.5 15.5t-62 43.5t-36 67.5t-11.5 86.5q0 52 11.5 89.5t36.5 61.5t65 35.5t96 11.5h239v-20q-29 -3 -45.5 -6t-24.5 -9.5t-10 -18t-2 -30.5v-643q0 -20 2 -31t10 -17.5t24.5 -9.5t45.5 -6v-20h-138v779h-56
v-779h-138v20zM274 596q-32 0 -56 -7.5t-40.5 -26t-25 -49.5t-8.5 -79q0 -47 11 -79.5t29.5 -53.5t42 -30.5t47.5 -9.5v335z" />
    <glyph glyph-name="periodcentered" unicode="&#xb7;" horiz-adv-x="250" 
d="M76 284q0 20 14.5 34.5t34.5 14.5t34.5 -14.5t14.5 -34.5t-14.5 -34.5t-34.5 -14.5t-34.5 14.5t-14.5 34.5z" />
    <glyph glyph-name="cedilla" unicode="&#xb8;" 
d="M158 -166q30 -11 59 -11q32 0 45 10t13 30q0 24 -16 32t-30 8q-17 0 -27 -6l-14 6l43 97h37l-28 -64q18 5 32 5q13 0 27.5 -3.5t27 -11.5t20.5 -21t8 -32q0 -28 -11 -45t-30 -26.5t-43 -13t-50 -3.5q-20 0 -39 5.5t-38 11.5z" />
    <glyph glyph-name="uni00B9" unicode="&#xb9;" horiz-adv-x="332" 
d="M98 384q13 1 23.5 8.5t10.5 18.5v279q0 15 -10 21t-24 8v12q31 8 54.5 17t50.5 20q-1 -15 -1.5 -35.5t-0.5 -35.5v-286q0 -11 10 -18.5t24 -8.5v-14q-16 0 -32.5 1.5t-36.5 1.5q-17 0 -33 -1t-35 -2v14z" />
    <glyph glyph-name="ordmasculine" unicode="&#xba;" horiz-adv-x="361" 
d="M182 650q37 0 66 -12.5t48.5 -33.5t29.5 -48t10 -55q0 -36 -12 -64t-33 -46.5t-50 -28.5t-63 -10t-62 11t-48.5 31t-31.5 47.5t-11 60.5q0 32 11.5 59.5t32.5 47t50 30.5t63 11zM187 390q21 0 37.5 8.5t27.5 22.5t16.5 31t5.5 35q0 19 -5 41t-16.5 41t-29.5 31t-43 12
q-14 0 -30 -5.5t-30 -17.5t-23.5 -31t-9.5 -47q0 -21 6.5 -43t19 -39t31 -28t43.5 -11z" />
    <glyph glyph-name="guillemotright" unicode="&#xbb;" 
d="M333 253q0 29 -18 64t-39 66.5t-39 54t-18 27.5q0 3 4.5 6t7.5 3q4 0 19 -11t35 -29.5t42.5 -42t41.5 -48t31.5 -48.5t12.5 -42t-12.5 -42t-31.5 -48.5t-41.5 -48t-42.5 -42t-35 -29.5t-19 -11q-3 0 -7.5 3t-4.5 6q0 5 18 27.5t39 54t39 66.5t18 64zM187 253q0 29 -18 64
t-39 66.5t-39 54t-18 27.5q0 3 4.5 6t7.5 3q4 0 19 -11t35 -29.5t42.5 -42t41.5 -48t31.5 -48.5t12.5 -42t-12.5 -42t-31.5 -48.5t-41.5 -48t-42.5 -42t-35 -29.5t-19 -11q-3 0 -7.5 3t-4.5 6q0 5 18 27.5t39 54t39 66.5t18 64z" />
    <glyph glyph-name="onequarter" unicode="&#xbc;" horiz-adv-x="750" 
d="M79 267q13 1 23.5 8.5t10.5 18.5v279q0 15 -10 21t-24 8v12q31 8 54.5 17t50.5 20q-1 -15 -1.5 -35.5t-0.5 -35.5v-286q0 -11 10 -18.5t24 -8.5v-14q-16 0 -32.5 1.5t-36.5 1.5q-17 0 -33 -1t-35 -2v14zM557 82h-162v37q14 27 25.5 47t22.5 37.5t22 33.5t25 34l86 111h46
v-260h45v-40h-45v-82h-65v82zM557 122v179h-1q-14 -16 -31 -38t-34 -46.5t-32 -49t-25 -45.5h123zM121 11l466 639l37 -27l-466 -639z" />
    <glyph glyph-name="onehalf" unicode="&#xbd;" horiz-adv-x="750" 
d="M59 267q13 1 23.5 8.5t10.5 18.5v279q0 15 -10 21t-24 8v12q31 8 54.5 17t50.5 20q-1 -15 -1.5 -35.5t-0.5 -35.5v-286q0 -11 10 -18.5t24 -8.5v-14q-16 0 -32.5 1.5t-36.5 1.5q-17 0 -33 -1t-35 -2v14zM463 45q27 22 57.5 46.5t56 52t42.5 58.5t17 66q0 43 -19 61.5
t-47 18.5q-38 0 -61.5 -19.5t-30.5 -44.5h-13q4 23 6 42.5t4 42.5q23 12 47.5 17t48.5 5q37 0 63 -11t42.5 -28t24.5 -37t8 -39q0 -35 -17 -65.5t-43.5 -57.5t-58.5 -50.5t-63 -42.5h190l-10 -60h-244v45zM92 11l466 639l37 -27l-466 -639z" />
    <glyph glyph-name="threequarters" unicode="&#xbe;" horiz-adv-x="750" 
d="M43 274q36 4 67 12t54.5 21t37 31.5t13.5 42.5q0 32 -37 49.5t-97 20.5l4 26q24 0 44.5 4t36.5 12.5t25 22.5t9 34q0 27 -16 44t-45 17q-20 0 -35 -6.5t-26 -17t-18.5 -23.5t-13.5 -25h-13q7 23 13 46.5t9 43.5q48 18 91 18q23 0 46 -5.5t41 -17t29 -29t11 -42.5
q0 -29 -23.5 -53t-72.5 -32v-2q58 -2 84.5 -21.5t26.5 -61.5q0 -33 -22.5 -58t-58 -42.5t-78 -26.5t-82.5 -9zM581 82h-162v37q14 27 25.5 47t22.5 37.5t22 33.5t25 34l86 111h46v-260h45v-40h-45v-82h-65v82zM581 122v179h-1q-14 -16 -31 -38t-34 -46.5t-32 -49t-25 -45.5
h123zM144 11l466 639l37 -27l-466 -639z" />
    <glyph glyph-name="questiondown" unicode="&#xbf;" 
d="M440 -10q-5 -34 -8.5 -67t-5.5 -67q-31 -16 -69 -24.5t-73 -8.5q-48 0 -89 13t-71 37.5t-47 59t-17 78.5q0 59 22.5 95t53 57.5t61.5 32t48 18.5q26 12 33.5 35t7.5 50h20v-140q-69 -4 -111.5 -40t-42.5 -105q0 -25 7.5 -49.5t22.5 -43.5t38 -30.5t54 -11.5q50 0 89 31.5
t57 79.5h20zM242 434q0 23 16 39t39 16t39 -16t16 -39t-16 -39t-39 -16t-39 16t-16 39z" />
    <glyph glyph-name="Agrave" unicode="&#xc0;" horiz-adv-x="611" 
d="M-1 8q13 0 21.5 3t15 10t12.5 19.5t14 33.5l178 488l4 16t2 17q0 17 -7.5 22t-24.5 9v14l38 -4t38 -2q13 0 26 2l26 4q3 -21 11.5 -48t22.5 -62l169 -441q10 -25 16.5 -40t13 -23t15 -11.5t22.5 -6.5v-14q-20 0 -38.5 3t-38.5 3q-29 0 -58.5 -3t-58.5 -3v14q26 2 36 9
t10 21q0 13 -5.5 31t-21.5 59l-41 110h-215l-49 -138q-8 -20 -12 -38t-4 -29t10 -17.5t42 -7.5v-14q-20 0 -39.5 3t-39.5 3q-23 0 -45 -3t-45 -3v14zM378 288l-89 248h-2l-89 -248h180zM184 792q-15 9 -28 21.5t-13 26.5q0 11 10.5 25t30.5 14q9 0 21 -7.5t38 -34.5
l129 -134h-46z" />
    <glyph glyph-name="Aacute" unicode="&#xc1;" horiz-adv-x="611" 
d="M-1 8q13 0 21.5 3t15 10t12.5 19.5t14 33.5l178 488l4 16t2 17q0 17 -7.5 22t-24.5 9v14l38 -4t38 -2q13 0 26 2l26 4q3 -21 11.5 -48t22.5 -62l169 -441q10 -25 16.5 -40t13 -23t15 -11.5t22.5 -6.5v-14q-20 0 -38.5 3t-38.5 3q-29 0 -58.5 -3t-58.5 -3v14q26 2 36 9
t10 21q0 13 -5.5 31t-21.5 59l-41 110h-215l-49 -138q-8 -20 -12 -38t-4 -29t10 -17.5t42 -7.5v-14q-20 0 -39.5 3t-39.5 3q-23 0 -45 -3t-45 -3v14zM378 288l-89 248h-2l-89 -248h180zM347 837q26 27 38 34.5t21 7.5q20 0 30.5 -14t10.5 -25q0 -14 -13 -26.5t-28 -21.5
l-142 -89h-46z" />
    <glyph glyph-name="Acircumflex" unicode="&#xc2;" horiz-adv-x="611" 
d="M-1 8q13 0 21.5 3t15 10t12.5 19.5t14 33.5l178 488l4 16t2 17q0 17 -7.5 22t-24.5 9v14l38 -4t38 -2q13 0 26 2l26 4q3 -21 11.5 -48t22.5 -62l169 -441q10 -25 16.5 -40t13 -23t15 -11.5t22.5 -6.5v-14q-20 0 -38.5 3t-38.5 3q-29 0 -58.5 -3t-58.5 -3v14q26 2 36 9
t10 21q0 13 -5.5 31t-21.5 59l-41 110h-215l-49 -138q-8 -20 -12 -38t-4 -29t10 -17.5t42 -7.5v-14q-20 0 -39.5 3t-39.5 3q-23 0 -45 -3t-45 -3v14zM378 288l-89 248h-2l-89 -248h180zM260 872h70l123 -169h-42l-116 103l-116 -103h-42z" />
    <glyph glyph-name="Atilde" unicode="&#xc3;" horiz-adv-x="611" 
d="M-1 8q13 0 21.5 3t15 10t12.5 19.5t14 33.5l178 488l4 16t2 17q0 17 -7.5 22t-24.5 9v14l38 -4t38 -2q13 0 26 2l26 4q3 -21 11.5 -48t22.5 -62l169 -441q10 -25 16.5 -40t13 -23t15 -11.5t22.5 -6.5v-14q-20 0 -38.5 3t-38.5 3q-29 0 -58.5 -3t-58.5 -3v14q26 2 36 9
t10 21q0 13 -5.5 31t-21.5 59l-41 110h-215l-49 -138q-8 -20 -12 -38t-4 -29t10 -17.5t42 -7.5v-14q-20 0 -39.5 3t-39.5 3q-23 0 -45 -3t-45 -3v14zM378 288l-89 248h-2l-89 -248h180zM124 728q4 22 13 42t23 35t33 23.5t43 8.5q19 0 37.5 -7t36.5 -16q20 -10 37.5 -17
t34.5 -7q20 0 32 15t17 32h34q-5 -22 -13.5 -41.5t-22 -34.5t-32 -24t-43.5 -9q-19 0 -37.5 6.5t-35.5 14.5q-20 10 -38 18t-32 8q-22 0 -35.5 -13.5t-18.5 -33.5h-33z" />
    <glyph glyph-name="Adieresis" unicode="&#xc4;" horiz-adv-x="611" 
d="M-1 8q13 0 21.5 3t15 10t12.5 19.5t14 33.5l178 488l4 16t2 17q0 17 -7.5 22t-24.5 9v14l38 -4t38 -2q13 0 26 2l26 4q3 -21 11.5 -48t22.5 -62l169 -441q10 -25 16.5 -40t13 -23t15 -11.5t22.5 -6.5v-14q-20 0 -38.5 3t-38.5 3q-29 0 -58.5 -3t-58.5 -3v14q26 2 36 9
t10 21q0 13 -5.5 31t-21.5 59l-41 110h-215l-49 -138q-8 -20 -12 -38t-4 -29t10 -17.5t42 -7.5v-14q-20 0 -39.5 3t-39.5 3q-23 0 -45 -3t-45 -3v14zM378 288l-89 248h-2l-89 -248h180zM141 769q0 22 15 37t37 15t37 -15t15 -37t-15 -37t-37 -15t-37 15t-15 37zM345 769
q0 22 15 37t37 15t37 -15t15 -37t-15 -37t-37 -15t-37 15t-15 37z" />
    <glyph glyph-name="Aring" unicode="&#xc5;" horiz-adv-x="611" 
d="M-1 8q13 0 21.5 3t15 10t12.5 19.5t14 33.5l178 488l4 16t2 17q0 17 -7.5 22t-24.5 9v14l38 -4t38 -2q13 0 26 2l26 4q3 -21 11.5 -48t22.5 -62l169 -441q10 -25 16.5 -40t13 -23t15 -11.5t22.5 -6.5v-14q-20 0 -38.5 3t-38.5 3q-29 0 -58.5 -3t-58.5 -3v14q26 2 36 9
t10 21q0 13 -5.5 31t-21.5 59l-41 110h-215l-49 -138q-8 -20 -12 -38t-4 -29t10 -17.5t42 -7.5v-14q-20 0 -39.5 3t-39.5 3q-23 0 -45 -3t-45 -3v14zM378 288l-89 248h-2l-89 -248h180zM193 805q0 21 8 39.5t22 32.5t32.5 22t39.5 8t39.5 -8t32.5 -22t22 -32.5t8 -39.5
t-8 -39.5t-22 -32.5t-32.5 -22t-39.5 -8t-39.5 8t-32.5 22t-22 32.5t-8 39.5zM231 805q0 -26 19 -45t45 -19t45 19t19 45t-19 45t-45 19t-45 -19t-19 -45z" />
    <glyph glyph-name="AE" unicode="&#xc6;" horiz-adv-x="944" 
d="M-6 8q27 8 43 26.5t33 46.5l261 425q17 29 30.5 52t13.5 33q0 6 -2 11t-8.5 8.5t-20 6t-36.5 3.5v14h561q0 -75 6 -148h-20q-5 30 -13 48t-20 28t-26.5 13t-30.5 3h-218v-214h142q13 0 24 1.5t18.5 7t12.5 17t8 32.5h20q-2 -22 -4 -42.5t-2 -42.5q0 -23 2 -44t4 -43h-20
q-3 21 -8 32.5t-12.5 17t-18.5 7t-24 1.5h-142v-252h201q31 0 54 4t39.5 16t27 33t17.5 55h19q-4 -42 -6.5 -82t-3.5 -82h-511v14q36 3 50.5 10t14.5 30v184h-211l-88 -153q-12 -21 -12 -39q0 -16 10.5 -25t48.5 -13v-14q-22 0 -44 3t-44 3q-29 0 -57.5 -3t-57.5 -3v14z
M449 288v284h-2l-178 -284h180z" />
    <glyph glyph-name="Ccedilla" unicode="&#xc7;" horiz-adv-x="611" 
d="M281 -166q30 -11 59 -11q32 0 45 10t13 30q0 24 -16 32t-30 8q-17 0 -27 -6l-14 6l36 81q-49 1 -102.5 20t-98.5 59t-74.5 102t-29.5 149q0 61 16.5 109.5t44 85.5t63 64t75 44t79 25t74.5 8q38 0 77.5 -7t74.5 -24q1 -38 3.5 -75t6.5 -75h-14q-8 34 -26 57t-42.5 36.5
t-52.5 19.5t-54 6q-50 0 -92.5 -17t-74 -48.5t-49 -76t-17.5 -99.5q0 -58 19 -111t53 -94t79.5 -65.5t98.5 -24.5q52 0 101 18.5t91 46.5l-4 -56q-35 -34 -83.5 -52.5t-103.5 -23.5l-22 -49q18 5 32 5q13 0 27.5 -3.5t27 -11.5t20.5 -21t8 -32q0 -28 -11 -45t-30 -26.5
t-43 -13t-50 -3.5q-20 0 -39 5.5t-38 11.5z" />
    <glyph glyph-name="Egrave" unicode="&#xc8;" horiz-adv-x="611" 
d="M54 14q29 5 40 13t11 29v522q0 21 -11 29t-40 13v14h482q0 -75 6 -148h-20q-5 30 -13 48t-20 28t-26.5 13t-30.5 3h-229v-214h142q13 0 24 1.5t18.5 7t12.5 17t8 32.5h20q-2 -22 -4 -42.5t-2 -42.5q0 -23 2 -44t4 -43h-20q-3 21 -8 32.5t-12.5 17t-18.5 7t-24 1.5h-142
v-252h212q31 0 54 4t39.5 16t27 33t17.5 55h19q-4 -42 -6.5 -82t-3.5 -82h-508v14zM194 792q-15 9 -28 21.5t-13 26.5q0 11 10.5 25t30.5 14q9 0 21 -7.5t38 -34.5l129 -134h-46z" />
    <glyph glyph-name="Eacute" unicode="&#xc9;" horiz-adv-x="611" 
d="M54 14q29 5 40 13t11 29v522q0 21 -11 29t-40 13v14h482q0 -75 6 -148h-20q-5 30 -13 48t-20 28t-26.5 13t-30.5 3h-229v-214h142q13 0 24 1.5t18.5 7t12.5 17t8 32.5h20q-2 -22 -4 -42.5t-2 -42.5q0 -23 2 -44t4 -43h-20q-3 21 -8 32.5t-12.5 17t-18.5 7t-24 1.5h-142
v-252h212q31 0 54 4t39.5 16t27 33t17.5 55h19q-4 -42 -6.5 -82t-3.5 -82h-508v14zM357 837q26 27 38 34.5t21 7.5q20 0 30.5 -14t10.5 -25q0 -14 -13 -26.5t-28 -21.5l-142 -89h-46z" />
    <glyph glyph-name="Ecircumflex" unicode="&#xca;" horiz-adv-x="611" 
d="M54 14q29 5 40 13t11 29v522q0 21 -11 29t-40 13v14h482q0 -75 6 -148h-20q-5 30 -13 48t-20 28t-26.5 13t-30.5 3h-229v-214h142q13 0 24 1.5t18.5 7t12.5 17t8 32.5h20q-2 -22 -4 -42.5t-2 -42.5q0 -23 2 -44t4 -43h-20q-3 21 -8 32.5t-12.5 17t-18.5 7t-24 1.5h-142
v-252h212q31 0 54 4t39.5 16t27 33t17.5 55h19q-4 -42 -6.5 -82t-3.5 -82h-508v14zM270 872h70l123 -169h-42l-116 103l-116 -103h-42z" />
    <glyph glyph-name="Edieresis" unicode="&#xcb;" horiz-adv-x="611" 
d="M54 14q29 5 40 13t11 29v522q0 21 -11 29t-40 13v14h482q0 -75 6 -148h-20q-5 30 -13 48t-20 28t-26.5 13t-30.5 3h-229v-214h142q13 0 24 1.5t18.5 7t12.5 17t8 32.5h20q-2 -22 -4 -42.5t-2 -42.5q0 -23 2 -44t4 -43h-20q-3 21 -8 32.5t-12.5 17t-18.5 7t-24 1.5h-142
v-252h212q31 0 54 4t39.5 16t27 33t17.5 55h19q-4 -42 -6.5 -82t-3.5 -82h-508v14zM151 769q0 22 15 37t37 15t37 -15t15 -37t-15 -37t-37 -15t-37 15t-15 37zM355 769q0 22 15 37t37 15t37 -15t15 -37t-15 -37t-37 -15t-37 15t-15 37z" />
    <glyph glyph-name="Igrave" unicode="&#xcc;" horiz-adv-x="278" 
d="M39 8q29 5 40 13t11 29v534q0 21 -11 29t-40 13v14q16 0 43.5 -3t56.5 -3t56.5 3t43.5 3v-14q-29 -5 -40 -13t-11 -29v-534q0 -21 11 -29t40 -13v-14q-16 0 -43.5 3t-56.5 3t-56.5 -3t-43.5 -3v14zM29 792q-15 9 -28 21.5t-13 26.5q0 11 10.5 25t30.5 14q9 0 21 -7.5
t38 -34.5l129 -134h-46z" />
    <glyph glyph-name="Iacute" unicode="&#xcd;" horiz-adv-x="278" 
d="M39 8q29 5 40 13t11 29v534q0 21 -11 29t-40 13v14q16 0 43.5 -3t56.5 -3t56.5 3t43.5 3v-14q-29 -5 -40 -13t-11 -29v-534q0 -21 11 -29t40 -13v-14q-16 0 -43.5 3t-56.5 3t-56.5 -3t-43.5 -3v14zM192 837q26 27 38 34.5t21 7.5q20 0 30.5 -14t10.5 -25q0 -14 -13 -26.5
t-28 -21.5l-142 -89h-46z" />
    <glyph glyph-name="Icircumflex" unicode="&#xce;" horiz-adv-x="278" 
d="M39 8q29 5 40 13t11 29v534q0 21 -11 29t-40 13v14q16 0 43.5 -3t56.5 -3t56.5 3t43.5 3v-14q-29 -5 -40 -13t-11 -29v-534q0 -21 11 -29t40 -13v-14q-16 0 -43.5 3t-56.5 3t-56.5 -3t-43.5 -3v14zM105 872h70l123 -169h-42l-116 103l-116 -103h-42z" />
    <glyph glyph-name="Idieresis" unicode="&#xcf;" horiz-adv-x="278" 
d="M39 8q29 5 40 13t11 29v534q0 21 -11 29t-40 13v14q16 0 43.5 -3t56.5 -3t56.5 3t43.5 3v-14q-29 -5 -40 -13t-11 -29v-534q0 -21 11 -29t40 -13v-14q-16 0 -43.5 3t-56.5 3t-56.5 -3t-43.5 -3v14zM-14 769q0 22 15 37t37 15t37 -15t15 -37t-15 -37t-37 -15t-37 15
t-15 37zM190 769q0 22 15 37t37 15t37 -15t15 -37t-15 -37t-37 -15t-37 15t-15 37z" />
    <glyph glyph-name="Eth" unicode="&#xd0;" horiz-adv-x="722" 
d="M54 14q29 5 40 13t11 29v252h-71v56h71v214q0 21 -11 29t-40 13v14h237q95 0 168 -22.5t122 -63.5t74 -98.5t25 -128.5q0 -72 -28.5 -131t-77.5 -101t-115 -65.5t-140 -23.5h-265v14zM343 56q38 0 80 17t77.5 48.5t58.5 77t23 103.5q0 43 -13 91.5t-49 89.5t-100 68
t-167 27h-50v-214h179v-56h-179v-252h140z" />
    <glyph glyph-name="Ntilde" unicode="&#xd1;" horiz-adv-x="722" 
d="M54 8q29 5 40 13t11 29v534q0 21 -11 29t-40 13v14q21 0 42.5 -3t42.5 -3q20 0 37.5 3t36.5 3l340 -467h2v362q0 25 -3.5 41t-11.5 26t-21.5 15.5t-33.5 8.5v14q21 0 42 -3t42 -3q25 0 49.5 3t49.5 3v-14q-29 -5 -40 -13t-11 -29v-590h-59l-389 536h-2v-431
q0 -25 3.5 -41t11.5 -26t21.5 -15.5t33.5 -8.5v-14q-21 0 -42 3t-42 3q-25 0 -49.5 -3t-49.5 -3v14zM190 728q4 22 13 42t23 35t33 23.5t43 8.5q19 0 37.5 -7t36.5 -16q20 -10 37.5 -17t34.5 -7q20 0 32 15t17 32h34q-5 -22 -13.5 -41.5t-22 -34.5t-32 -24t-43.5 -9
q-19 0 -37.5 6.5t-35.5 14.5q-20 10 -38 18t-32 8q-22 0 -35.5 -13.5t-18.5 -33.5h-33z" />
    <glyph glyph-name="Ograve" unicode="&#xd2;" horiz-adv-x="722" 
d="M42 315q0 73 29.5 135t76.5 106t105.5 69t116.5 25q83 0 142 -30.5t96.5 -77.5t54.5 -104.5t17 -112.5q0 -65 -23 -126t-65.5 -109t-102.5 -77t-134 -29q-75 0 -133.5 26.5t-98.5 71.5t-60.5 105t-20.5 128zM134 340q0 -53 16.5 -104.5t48 -92.5t77 -66t103.5 -25
q40 0 77.5 14.5t66.5 44t47 74t18 104.5q0 66 -20.5 120t-55 92.5t-79 59.5t-92.5 21q-27 0 -63 -12t-68 -40t-54 -74.5t-22 -115.5zM250 792q-15 9 -28 21.5t-13 26.5q0 11 10.5 25t30.5 14q9 0 21 -7.5t38 -34.5l129 -134h-46z" />
    <glyph glyph-name="Oacute" unicode="&#xd3;" horiz-adv-x="722" 
d="M42 315q0 73 29.5 135t76.5 106t105.5 69t116.5 25q83 0 142 -30.5t96.5 -77.5t54.5 -104.5t17 -112.5q0 -65 -23 -126t-65.5 -109t-102.5 -77t-134 -29q-75 0 -133.5 26.5t-98.5 71.5t-60.5 105t-20.5 128zM134 340q0 -53 16.5 -104.5t48 -92.5t77 -66t103.5 -25
q40 0 77.5 14.5t66.5 44t47 74t18 104.5q0 66 -20.5 120t-55 92.5t-79 59.5t-92.5 21q-27 0 -63 -12t-68 -40t-54 -74.5t-22 -115.5zM413 837q26 27 38 34.5t21 7.5q20 0 30.5 -14t10.5 -25q0 -14 -13 -26.5t-28 -21.5l-142 -89h-46z" />
    <glyph glyph-name="Ocircumflex" unicode="&#xd4;" horiz-adv-x="722" 
d="M42 315q0 73 29.5 135t76.5 106t105.5 69t116.5 25q83 0 142 -30.5t96.5 -77.5t54.5 -104.5t17 -112.5q0 -65 -23 -126t-65.5 -109t-102.5 -77t-134 -29q-75 0 -133.5 26.5t-98.5 71.5t-60.5 105t-20.5 128zM134 340q0 -53 16.5 -104.5t48 -92.5t77 -66t103.5 -25
q40 0 77.5 14.5t66.5 44t47 74t18 104.5q0 66 -20.5 120t-55 92.5t-79 59.5t-92.5 21q-27 0 -63 -12t-68 -40t-54 -74.5t-22 -115.5zM326 872h70l123 -169h-42l-116 103l-116 -103h-42z" />
    <glyph glyph-name="Otilde" unicode="&#xd5;" horiz-adv-x="722" 
d="M42 315q0 73 29.5 135t76.5 106t105.5 69t116.5 25q83 0 142 -30.5t96.5 -77.5t54.5 -104.5t17 -112.5q0 -65 -23 -126t-65.5 -109t-102.5 -77t-134 -29q-75 0 -133.5 26.5t-98.5 71.5t-60.5 105t-20.5 128zM134 340q0 -53 16.5 -104.5t48 -92.5t77 -66t103.5 -25
q40 0 77.5 14.5t66.5 44t47 74t18 104.5q0 66 -20.5 120t-55 92.5t-79 59.5t-92.5 21q-27 0 -63 -12t-68 -40t-54 -74.5t-22 -115.5zM190 728q4 22 13 42t23 35t33 23.5t43 8.5q19 0 37.5 -7t36.5 -16q20 -10 37.5 -17t34.5 -7q20 0 32 15t17 32h34q-5 -22 -13.5 -41.5
t-22 -34.5t-32 -24t-43.5 -9q-19 0 -37.5 6.5t-35.5 14.5q-20 10 -38 18t-32 8q-22 0 -35.5 -13.5t-18.5 -33.5h-33z" />
    <glyph glyph-name="Odieresis" unicode="&#xd6;" horiz-adv-x="722" 
d="M42 315q0 73 29.5 135t76.5 106t105.5 69t116.5 25q83 0 142 -30.5t96.5 -77.5t54.5 -104.5t17 -112.5q0 -65 -23 -126t-65.5 -109t-102.5 -77t-134 -29q-75 0 -133.5 26.5t-98.5 71.5t-60.5 105t-20.5 128zM134 340q0 -53 16.5 -104.5t48 -92.5t77 -66t103.5 -25
q40 0 77.5 14.5t66.5 44t47 74t18 104.5q0 66 -20.5 120t-55 92.5t-79 59.5t-92.5 21q-27 0 -63 -12t-68 -40t-54 -74.5t-22 -115.5zM207 769q0 22 15 37t37 15t37 -15t15 -37t-15 -37t-37 -15t-37 15t-15 37zM411 769q0 22 15 37t37 15t37 -15t15 -37t-15 -37t-37 -15
t-37 15t-15 37z" />
    <glyph glyph-name="multiply" unicode="&#xd7;" 
d="M51 149l164 165l-159 159l36 36l158 -159l161 161l37 -38l-160 -161l159 -159l-36 -36l-159 159l-164 -164z" />
    <glyph glyph-name="Oslash" unicode="&#xd8;" horiz-adv-x="722" 
d="M469 540q-59 42 -128 42q-27 0 -63 -12t-68 -40t-54 -74.5t-22 -115.5q0 -64 24 -124.5t69 -102.5zM263 86q24 -16 53 -25t63 -9q40 0 77.5 14.5t66.5 44t47 74t18 104.5q0 71 -23.5 127.5t-61.5 94.5zM181 32q-69 45 -104 119t-35 164q0 73 29.5 135t76.5 106t105.5 69
t116.5 25q83 0 143 -31l45 79h51l-58 -102q34 -24 58 -55.5t40 -67.5t23.5 -74t7.5 -74q0 -65 -23 -126t-65.5 -109t-102.5 -77t-134 -29q-76 0 -134 27l-42 -75h-52z" />
    <glyph glyph-name="Ugrave" unicode="&#xd9;" horiz-adv-x="667" 
d="M479 583q0 13 -6 21.5t-15 13t-19 6.5t-18 2v14q23 0 49.5 -3t64.5 -3q20 0 43 3t46 3v-14q-15 -2 -24.5 -3.5t-14.5 -7t-6.5 -15t-1.5 -25.5v-364q0 -117 -64 -172t-180 -55q-115 0 -179 55t-64 172v364q0 16 -1.5 25.5t-6.5 15t-14.5 7t-24.5 3.5v14q23 0 46 -3t43 -3
q38 0 64.5 3t49.5 3v-14q-8 0 -18 -2t-19 -6.5t-15 -13t-6 -21.5v-391q0 -40 11.5 -69.5t31 -49t46 -29.5t56.5 -10q31 0 57.5 10t46 29.5t31 49t11.5 69.5v391zM222 792q-15 9 -28 21.5t-13 26.5q0 11 10.5 25t30.5 14q9 0 21 -7.5t38 -34.5l129 -134h-46z" />
    <glyph glyph-name="Uacute" unicode="&#xda;" horiz-adv-x="667" 
d="M479 583q0 13 -6 21.5t-15 13t-19 6.5t-18 2v14q23 0 49.5 -3t64.5 -3q20 0 43 3t46 3v-14q-15 -2 -24.5 -3.5t-14.5 -7t-6.5 -15t-1.5 -25.5v-364q0 -117 -64 -172t-180 -55q-115 0 -179 55t-64 172v364q0 16 -1.5 25.5t-6.5 15t-14.5 7t-24.5 3.5v14q23 0 46 -3t43 -3
q38 0 64.5 3t49.5 3v-14q-8 0 -18 -2t-19 -6.5t-15 -13t-6 -21.5v-391q0 -40 11.5 -69.5t31 -49t46 -29.5t56.5 -10q31 0 57.5 10t46 29.5t31 49t11.5 69.5v391zM385 837q26 27 38 34.5t21 7.5q20 0 30.5 -14t10.5 -25q0 -14 -13 -26.5t-28 -21.5l-142 -89h-46z" />
    <glyph glyph-name="Ucircumflex" unicode="&#xdb;" horiz-adv-x="667" 
d="M479 583q0 13 -6 21.5t-15 13t-19 6.5t-18 2v14q23 0 49.5 -3t64.5 -3q20 0 43 3t46 3v-14q-15 -2 -24.5 -3.5t-14.5 -7t-6.5 -15t-1.5 -25.5v-364q0 -117 -64 -172t-180 -55q-115 0 -179 55t-64 172v364q0 16 -1.5 25.5t-6.5 15t-14.5 7t-24.5 3.5v14q23 0 46 -3t43 -3
q38 0 64.5 3t49.5 3v-14q-8 0 -18 -2t-19 -6.5t-15 -13t-6 -21.5v-391q0 -40 11.5 -69.5t31 -49t46 -29.5t56.5 -10q31 0 57.5 10t46 29.5t31 49t11.5 69.5v391zM298 872h70l123 -169h-42l-116 103l-116 -103h-42z" />
    <glyph glyph-name="Udieresis" unicode="&#xdc;" horiz-adv-x="667" 
d="M479 583q0 13 -6 21.5t-15 13t-19 6.5t-18 2v14q23 0 49.5 -3t64.5 -3q20 0 43 3t46 3v-14q-15 -2 -24.5 -3.5t-14.5 -7t-6.5 -15t-1.5 -25.5v-364q0 -117 -64 -172t-180 -55q-115 0 -179 55t-64 172v364q0 16 -1.5 25.5t-6.5 15t-14.5 7t-24.5 3.5v14q23 0 46 -3t43 -3
q38 0 64.5 3t49.5 3v-14q-8 0 -18 -2t-19 -6.5t-15 -13t-6 -21.5v-391q0 -40 11.5 -69.5t31 -49t46 -29.5t56.5 -10q31 0 57.5 10t46 29.5t31 49t11.5 69.5v391zM179 769q0 22 15 37t37 15t37 -15t15 -37t-15 -37t-37 -15t-37 15t-15 37zM383 769q0 22 15 37t37 15t37 -15
t15 -37t-15 -37t-37 -15t-37 15t-15 37z" />
    <glyph glyph-name="Yacute" unicode="&#xdd;" horiz-adv-x="556" 
d="M173 8q38 5 50.5 18.5t12.5 39.5v179l-180 330q-12 22 -25 34t-40 17v14q27 0 53.5 -3t52.5 -3t51.5 3t51.5 3v-14q-47 -1 -47 -23q0 -8 2.5 -16.5t9.5 -22.5l136 -266l127 268q5 12 6 20t1 14q0 13 -11 18.5t-37 7.5v14q20 0 47 -3t51 -3q18 0 37 3t43 3v-14
q-14 -1 -24.5 -4.5t-18.5 -11.5t-15.5 -20.5t-16.5 -30.5l-156 -314v-179q0 -26 12.5 -39.5t50.5 -18.5v-14q-29 0 -59 3t-53 3t-53 -3t-59 -3v14zM330 837q26 27 38 34.5t21 7.5q20 0 30.5 -14t10.5 -25q0 -14 -13 -26.5t-28 -21.5l-142 -89h-46z" />
    <glyph glyph-name="Thorn" unicode="&#xde;" horiz-adv-x="556" 
d="M54 8q29 5 40 13t11 29v534q0 21 -11 29t-40 13v14q16 0 43.5 -3t56.5 -3t56.5 3t43.5 3v-14q-29 -5 -40 -13t-11 -29v-74h145q49 0 86 -13.5t62 -38.5t37 -59t12 -76q0 -46 -17 -83t-47.5 -63t-72.5 -40t-93 -14q-9 0 -22.5 1.5t-27.5 5t-26.5 8.5t-19.5 11l-4 4t-2 6
q0 8 14 8h60q35 0 65.5 9.5t53 28t35 46t12.5 62.5q0 48 -16 77t-45.5 44.5t-70.5 20.5t-92 5h-26v-410q0 -21 11 -29t40 -13v-14q-16 0 -43.5 3t-56.5 3t-56.5 -3t-43.5 -3v14z" />
    <glyph glyph-name="germandbls" unicode="&#xdf;" horiz-adv-x="556" 
d="M37 -169q31 4 42 16t11 45v599q0 46 15 82.5t41 62.5t62.5 40t80.5 14t77.5 -12t55.5 -32.5t33 -47t11 -55.5q0 -32 -11 -57t-29.5 -43.5t-44 -31t-55.5 -19.5v-2q51 -5 87.5 -22.5t60 -44t35 -61t11.5 -73.5q0 -56 -19 -95t-49.5 -63.5t-68.5 -35.5t-76 -11
q-27 0 -52.5 6.5t-42.5 14.5l-12 64q23 -16 44.5 -25.5t50.5 -9.5q32 0 58 12t44 33.5t27.5 51t9.5 65.5q0 49 -17.5 80.5t-46 51.5t-64 30.5t-72.5 16.5q-7 1 -7 9q0 5 2 7.5t10 3.5q25 2 50 11t45 25.5t33 41.5t13 58q0 32 -9 53t-23 33.5t-31 17.5t-34 5
q-20 0 -39.5 -7.5t-34.5 -23.5t-24 -41.5t-9 -62.5v-688q-17 1 -33.5 2t-35.5 1q-20 0 -36.5 -1t-33.5 -2v14z" />
    <glyph glyph-name="agrave" unicode="&#xe0;" 
d="M355 89h-2q-26 -55 -66.5 -80t-100.5 -25q-66 0 -106.5 33.5t-40.5 101.5q0 122 155 143l141 19q14 2 17 13t3 22q0 54 -28 79t-81 25q-51 0 -87 -18.5t-59 -62.5h-11l6 109q36 15 74.5 21.5t76.5 6.5q41 0 75.5 -9t60 -30t39.5 -54t14 -81v-236q0 -25 6.5 -40.5
t34.5 -17.5v-14q-16 2 -31 4t-31 2q-14 0 -29 -2l-30 -4v95zM350 235l-126 -22q-53 -9 -76 -31t-23 -58q0 -42 25.5 -60t64.5 -18q36 0 61.5 17t42 42t24 54.5t7.5 55.5v20zM139 618q-15 9 -28 21.5t-13 26.5q0 11 10.5 25t30.5 14q9 0 21 -7.5t38 -34.5l129 -134h-46z" />
    <glyph glyph-name="aacute" unicode="&#xe1;" 
d="M355 89h-2q-26 -55 -66.5 -80t-100.5 -25q-66 0 -106.5 33.5t-40.5 101.5q0 122 155 143l141 19q14 2 17 13t3 22q0 54 -28 79t-81 25q-51 0 -87 -18.5t-59 -62.5h-11l6 109q36 15 74.5 21.5t76.5 6.5q41 0 75.5 -9t60 -30t39.5 -54t14 -81v-236q0 -25 6.5 -40.5
t34.5 -17.5v-14q-16 2 -31 4t-31 2q-14 0 -29 -2l-30 -4v95zM350 235l-126 -22q-53 -9 -76 -31t-23 -58q0 -42 25.5 -60t64.5 -18q36 0 61.5 17t42 42t24 54.5t7.5 55.5v20zM302 663q26 27 38 34.5t21 7.5q20 0 30.5 -14t10.5 -25q0 -14 -13 -26.5t-28 -21.5l-142 -89h-46z
" />
    <glyph glyph-name="acircumflex" unicode="&#xe2;" 
d="M355 89h-2q-26 -55 -66.5 -80t-100.5 -25q-66 0 -106.5 33.5t-40.5 101.5q0 122 155 143l141 19q14 2 17 13t3 22q0 54 -28 79t-81 25q-51 0 -87 -18.5t-59 -62.5h-11l6 109q36 15 74.5 21.5t76.5 6.5q41 0 75.5 -9t60 -30t39.5 -54t14 -81v-236q0 -25 6.5 -40.5
t34.5 -17.5v-14q-16 2 -31 4t-31 2q-14 0 -29 -2l-30 -4v95zM350 235l-126 -22q-53 -9 -76 -31t-23 -58q0 -42 25.5 -60t64.5 -18q36 0 61.5 17t42 42t24 54.5t7.5 55.5v20zM215 698h70l123 -169h-42l-116 103l-116 -103h-42z" />
    <glyph glyph-name="atilde" unicode="&#xe3;" 
d="M355 89h-2q-26 -55 -66.5 -80t-100.5 -25q-66 0 -106.5 33.5t-40.5 101.5q0 122 155 143l141 19q14 2 17 13t3 22q0 54 -28 79t-81 25q-51 0 -87 -18.5t-59 -62.5h-11l6 109q36 15 74.5 21.5t76.5 6.5q41 0 75.5 -9t60 -30t39.5 -54t14 -81v-236q0 -25 6.5 -40.5
t34.5 -17.5v-14q-16 2 -31 4t-31 2q-14 0 -29 -2l-30 -4v95zM350 235l-126 -22q-53 -9 -76 -31t-23 -58q0 -42 25.5 -60t64.5 -18q36 0 61.5 17t42 42t24 54.5t7.5 55.5v20zM79 554q4 22 13 42t23 35t33 23.5t43 8.5q19 0 37.5 -7t36.5 -16q20 -10 37.5 -17t34.5 -7
q20 0 32 15t17 32h34q-5 -22 -13.5 -41.5t-22 -34.5t-32 -24t-43.5 -9q-19 0 -37.5 6.5t-35.5 14.5q-20 10 -38 18t-32 8q-22 0 -35.5 -13.5t-18.5 -33.5h-33z" />
    <glyph glyph-name="adieresis" unicode="&#xe4;" 
d="M355 89h-2q-26 -55 -66.5 -80t-100.5 -25q-66 0 -106.5 33.5t-40.5 101.5q0 122 155 143l141 19q14 2 17 13t3 22q0 54 -28 79t-81 25q-51 0 -87 -18.5t-59 -62.5h-11l6 109q36 15 74.5 21.5t76.5 6.5q41 0 75.5 -9t60 -30t39.5 -54t14 -81v-236q0 -25 6.5 -40.5
t34.5 -17.5v-14q-16 2 -31 4t-31 2q-14 0 -29 -2l-30 -4v95zM350 235l-126 -22q-53 -9 -76 -31t-23 -58q0 -42 25.5 -60t64.5 -18q36 0 61.5 17t42 42t24 54.5t7.5 55.5v20zM96 595q0 22 15 37t37 15t37 -15t15 -37t-15 -37t-37 -15t-37 15t-15 37zM300 595q0 22 15 37
t37 15t37 -15t15 -37t-15 -37t-37 -15t-37 15t-15 37z" />
    <glyph glyph-name="aring" unicode="&#xe5;" 
d="M355 89h-2q-26 -55 -66.5 -80t-100.5 -25q-66 0 -106.5 33.5t-40.5 101.5q0 122 155 143l141 19q14 2 17 13t3 22q0 54 -28 79t-81 25q-51 0 -87 -18.5t-59 -62.5h-11l6 109q36 15 74.5 21.5t76.5 6.5q41 0 75.5 -9t60 -30t39.5 -54t14 -81v-236q0 -25 6.5 -40.5
t34.5 -17.5v-14q-16 2 -31 4t-31 2q-14 0 -29 -2l-30 -4v95zM350 235l-126 -22q-53 -9 -76 -31t-23 -58q0 -42 25.5 -60t64.5 -18q36 0 61.5 17t42 42t24 54.5t7.5 55.5v20zM148 631q0 21 8 39.5t22 32.5t32.5 22t39.5 8t39.5 -8t32.5 -22t22 -32.5t8 -39.5t-8 -39.5
t-22 -32.5t-32.5 -22t-39.5 -8t-39.5 8t-32.5 22t-22 32.5t-8 39.5zM186 631q0 -26 19 -45t45 -19t45 19t19 45t-19 45t-45 19t-45 -19t-19 -45z" />
    <glyph glyph-name="ae" unicode="&#xe6;" horiz-adv-x="833" 
d="M777 51q-40 -31 -88.5 -49t-111.5 -18q-66 0 -119 36.5t-79 96.5q-16 -33 -34 -58t-41.5 -41.5t-53 -25t-68.5 -8.5q-32 0 -60 8t-49.5 24.5t-34 42t-12.5 59.5q0 39 16 65t41.5 42t58 24.5t64.5 13.5l97 14q21 3 32.5 7t17.5 9.5t7.5 13.5t1.5 19q0 16 -7 35t-23 34.5
t-40.5 26t-60.5 10.5q-20 0 -42 -7.5t-42 -20.5t-36 -31.5t-24 -40.5h-11l13 111q35 17 72 25t75 8q57 0 102 -17t79 -67q29 44 76 64t99 20q49 0 89 -17t68 -48t43 -74t15 -95h-363q0 -40 12.5 -75.5t35 -62.5t54.5 -42.5t72 -15.5q27 0 48.5 5t40.5 14t37.5 22t39.5 29z
M364 249l-96 -16q-74 -12 -112 -33t-38 -70q0 -39 27 -61.5t66 -22.5q44 0 73.5 23.5t47 55t25 61.5t7.5 44v19zM715 298q0 27 -10 50.5t-27.5 40.5t-41 27t-50.5 10q-28 0 -52 -10.5t-41.5 -28t-28 -41t-10.5 -48.5h261z" />
    <glyph glyph-name="ccedilla" unicode="&#xe7;" horiz-adv-x="444" 
d="M177 -166q30 -11 59 -11q32 0 45 10t13 30q0 24 -16 32t-30 8q-17 0 -27 -6l-14 6l37 82q-50 5 -88.5 25.5t-64.5 53t-39 75.5t-13 94q0 52 20 96.5t53.5 77t77 51t91.5 18.5q36 0 66.5 -6t59.5 -14q-2 -32 -2 -62.5t2 -59.5h-14q-13 42 -43 67t-74 25q-26 0 -53 -10.5
t-48.5 -34t-35.5 -61t-14 -91.5q0 -44 14 -78t36.5 -57.5t52 -35.5t61.5 -12q40 0 77.5 18t66.5 43l-9 -64q-33 -29 -71 -43.5t-73 -15.5l-21 -48q18 5 32 5q13 0 27.5 -3.5t27 -11.5t20.5 -21t8 -32q0 -28 -11 -45t-30 -26.5t-43 -13t-50 -3.5q-20 0 -39 5.5t-38 11.5z" />
    <glyph glyph-name="egrave" unicode="&#xe8;" horiz-adv-x="556" 
d="M479 53q-36 -32 -88 -50.5t-117 -18.5q-53 0 -96 18.5t-74 51.5t-48 79t-17 100q0 52 18 96.5t50.5 77t76.5 51t97 18.5q57 0 99.5 -16t71 -46t43 -72t14.5 -94h-378q0 -43 13.5 -79t39 -62t61 -40.5t79.5 -14.5q19 0 35.5 2.5t34.5 9.5t40 20t52 34zM411 298
q0 58 -34.5 93t-94.5 35q-28 0 -53 -9.5t-44.5 -27t-32 -41t-15.5 -50.5h274zM177 618q-15 9 -28 21.5t-13 26.5q0 11 10.5 25t30.5 14q9 0 21 -7.5t38 -34.5l129 -134h-46z" />
    <glyph glyph-name="eacute" unicode="&#xe9;" horiz-adv-x="556" 
d="M479 53q-36 -32 -88 -50.5t-117 -18.5q-53 0 -96 18.5t-74 51.5t-48 79t-17 100q0 52 18 96.5t50.5 77t76.5 51t97 18.5q57 0 99.5 -16t71 -46t43 -72t14.5 -94h-378q0 -43 13.5 -79t39 -62t61 -40.5t79.5 -14.5q19 0 35.5 2.5t34.5 9.5t40 20t52 34zM411 298
q0 58 -34.5 93t-94.5 35q-28 0 -53 -9.5t-44.5 -27t-32 -41t-15.5 -50.5h274zM340 663q26 27 38 34.5t21 7.5q20 0 30.5 -14t10.5 -25q0 -14 -13 -26.5t-28 -21.5l-142 -89h-46z" />
    <glyph glyph-name="ecircumflex" unicode="&#xea;" horiz-adv-x="556" 
d="M479 53q-36 -32 -88 -50.5t-117 -18.5q-53 0 -96 18.5t-74 51.5t-48 79t-17 100q0 52 18 96.5t50.5 77t76.5 51t97 18.5q57 0 99.5 -16t71 -46t43 -72t14.5 -94h-378q0 -43 13.5 -79t39 -62t61 -40.5t79.5 -14.5q19 0 35.5 2.5t34.5 9.5t40 20t52 34zM411 298
q0 58 -34.5 93t-94.5 35q-28 0 -53 -9.5t-44.5 -27t-32 -41t-15.5 -50.5h274zM253 698h70l123 -169h-42l-116 103l-116 -103h-42z" />
    <glyph glyph-name="edieresis" unicode="&#xeb;" horiz-adv-x="556" 
d="M479 53q-36 -32 -88 -50.5t-117 -18.5q-53 0 -96 18.5t-74 51.5t-48 79t-17 100q0 52 18 96.5t50.5 77t76.5 51t97 18.5q57 0 99.5 -16t71 -46t43 -72t14.5 -94h-378q0 -43 13.5 -79t39 -62t61 -40.5t79.5 -14.5q19 0 35.5 2.5t34.5 9.5t40 20t52 34zM411 298
q0 58 -34.5 93t-94.5 35q-28 0 -53 -9.5t-44.5 -27t-32 -41t-15.5 -50.5h274zM134 595q0 22 15 37t37 15t37 -15t15 -37t-15 -37t-37 -15t-37 15t-15 37zM338 595q0 22 15 37t37 15t37 -15t15 -37t-15 -37t-37 -15t-37 15t-15 37z" />
    <glyph glyph-name="igrave" unicode="&#xec;" horiz-adv-x="278" 
d="M42 8q21 2 37.5 11t16.5 27v336q0 19 -9.5 26t-34.5 12l-16 3v8q39 10 77 21.5t74 23.5q-2 -24 -3.5 -50.5t-1.5 -50.5v-329q0 -18 16.5 -27t37.5 -11v-14q-26 2 -48 4t-49 2t-49 -2t-48 -4v14zM29 618q-15 9 -28 21.5t-13 26.5q0 11 10.5 25t30.5 14q9 0 21 -7.5
t38 -34.5l129 -134h-46z" />
    <glyph glyph-name="iacute" unicode="&#xed;" horiz-adv-x="278" 
d="M42 8q21 2 37.5 11t16.5 27v336q0 19 -9.5 26t-34.5 12l-16 3v8q39 10 77 21.5t74 23.5q-2 -24 -3.5 -50.5t-1.5 -50.5v-329q0 -18 16.5 -27t37.5 -11v-14q-26 2 -48 4t-49 2t-49 -2t-48 -4v14zM192 663q26 27 38 34.5t21 7.5q20 0 30.5 -14t10.5 -25q0 -14 -13 -26.5
t-28 -21.5l-142 -89h-46z" />
    <glyph glyph-name="icircumflex" unicode="&#xee;" horiz-adv-x="278" 
d="M42 8q21 2 37.5 11t16.5 27v336q0 19 -9.5 26t-34.5 12l-16 3v8q39 10 77 21.5t74 23.5q-2 -24 -3.5 -50.5t-1.5 -50.5v-329q0 -18 16.5 -27t37.5 -11v-14q-26 2 -48 4t-49 2t-49 -2t-48 -4v14zM105 698h70l123 -169h-42l-116 103l-116 -103h-42z" />
    <glyph glyph-name="idieresis" unicode="&#xef;" horiz-adv-x="278" 
d="M42 8q21 2 37.5 11t16.5 27v336q0 19 -9.5 26t-34.5 12l-16 3v8q39 10 77 21.5t74 23.5q-2 -24 -3.5 -50.5t-1.5 -50.5v-329q0 -18 16.5 -27t37.5 -11v-14q-26 2 -48 4t-49 2t-49 -2t-48 -4v14zM-14 595q0 22 15 37t37 15t37 -15t15 -37t-15 -37t-37 -15t-37 15t-15 37z
M190 595q0 22 15 37t37 15t37 -15t15 -37t-15 -37t-37 -15t-37 15t-15 37z" />
    <glyph glyph-name="eth" unicode="&#xf0;" horiz-adv-x="556" 
d="M400 432q-8 21 -25 47t-36.5 51t-39 46t-34.5 32l-122 -61l-31 34l116 58q-28 20 -58 34.5t-62 25.5l22 31q40 -11 78 -25.5t74 -38.5l127 64l31 -34l-115 -58q46 -36 82 -80.5t60.5 -92.5t37 -96.5t12.5 -92.5q0 -67 -14.5 -121t-44.5 -92t-76 -58.5t-108 -20.5
q-53 0 -96 18.5t-74 51.5t-48 79t-17 100q0 52 18 96.5t50.5 77t76.5 51t97 18.5q44 0 72 -14t45 -32zM125 251q0 -38 10 -76t30 -68t50.5 -48.5t72.5 -18.5q36 0 63 14.5t45 38.5t26.5 55t8.5 63q0 33 -8 70t-26 67.5t-47.5 51t-72.5 20.5q-25 0 -51.5 -9t-49 -29t-37 -52
t-14.5 -79z" />
    <glyph glyph-name="ntilde" unicode="&#xf1;" horiz-adv-x="556" 
d="M36 8q21 2 37.5 11t16.5 27v332q0 26 -10 34.5t-36 10.5v8q33 10 70.5 22.5t64.5 22.5q-2 -17 -2.5 -39.5t-0.5 -40.5h2q20 37 53.5 58.5t74.5 21.5q72 0 116 -42.5t44 -133.5v-245q0 -23 8.5 -33.5t37.5 -13.5v-14q-14 2 -33 4t-36 2q-13 0 -34 -2t-35 -4q2 15 4 31.5
t2 33.5v257q0 28 -6.5 46.5t-18 30t-27 16.5t-33.5 5q-25 0 -46.5 -10.5t-37.5 -29t-25.5 -45t-9.5 -58.5v-225q0 -18 16.5 -27t37.5 -11v-14q-26 2 -48 4t-49 2t-49 -2t-48 -4v14zM107 554q4 22 13 42t23 35t33 23.5t43 8.5q19 0 37.5 -7t36.5 -16q20 -10 37.5 -17t34.5 -7
q20 0 32 15t17 32h34q-5 -22 -13.5 -41.5t-22 -34.5t-32 -24t-43.5 -9q-19 0 -37.5 6.5t-35.5 14.5q-20 10 -38 18t-32 8q-22 0 -35.5 -13.5t-18.5 -33.5h-33z" />
    <glyph glyph-name="ograve" unicode="&#xf2;" horiz-adv-x="556" 
d="M39 233q0 52 18 96.5t50.5 77t76.5 51t97 18.5q57 0 101 -21t74 -55.5t45.5 -79t15.5 -90.5q0 -59 -18.5 -105t-51 -77.5t-77 -47.5t-96.5 -16q-53 0 -96 18.5t-74 51.5t-48 79t-17 100zM125 251q0 -38 10 -76t30 -68t50.5 -48.5t72.5 -18.5q36 0 63 14.5t45 38.5
t26.5 55t8.5 63q0 33 -8 70t-26 67.5t-47.5 51t-72.5 20.5q-25 0 -51.5 -9t-49 -29t-37 -52t-14.5 -79zM167 618q-15 9 -28 21.5t-13 26.5q0 11 10.5 25t30.5 14q9 0 21 -7.5t38 -34.5l129 -134h-46z" />
    <glyph glyph-name="oacute" unicode="&#xf3;" horiz-adv-x="556" 
d="M39 233q0 52 18 96.5t50.5 77t76.5 51t97 18.5q57 0 101 -21t74 -55.5t45.5 -79t15.5 -90.5q0 -59 -18.5 -105t-51 -77.5t-77 -47.5t-96.5 -16q-53 0 -96 18.5t-74 51.5t-48 79t-17 100zM125 251q0 -38 10 -76t30 -68t50.5 -48.5t72.5 -18.5q36 0 63 14.5t45 38.5
t26.5 55t8.5 63q0 33 -8 70t-26 67.5t-47.5 51t-72.5 20.5q-25 0 -51.5 -9t-49 -29t-37 -52t-14.5 -79zM330 663q26 27 38 34.5t21 7.5q20 0 30.5 -14t10.5 -25q0 -14 -13 -26.5t-28 -21.5l-142 -89h-46z" />
    <glyph glyph-name="ocircumflex" unicode="&#xf4;" horiz-adv-x="556" 
d="M39 233q0 52 18 96.5t50.5 77t76.5 51t97 18.5q57 0 101 -21t74 -55.5t45.5 -79t15.5 -90.5q0 -59 -18.5 -105t-51 -77.5t-77 -47.5t-96.5 -16q-53 0 -96 18.5t-74 51.5t-48 79t-17 100zM125 251q0 -38 10 -76t30 -68t50.5 -48.5t72.5 -18.5q36 0 63 14.5t45 38.5
t26.5 55t8.5 63q0 33 -8 70t-26 67.5t-47.5 51t-72.5 20.5q-25 0 -51.5 -9t-49 -29t-37 -52t-14.5 -79zM243 698h70l123 -169h-42l-116 103l-116 -103h-42z" />
    <glyph glyph-name="otilde" unicode="&#xf5;" horiz-adv-x="556" 
d="M39 233q0 52 18 96.5t50.5 77t76.5 51t97 18.5q57 0 101 -21t74 -55.5t45.5 -79t15.5 -90.5q0 -59 -18.5 -105t-51 -77.5t-77 -47.5t-96.5 -16q-53 0 -96 18.5t-74 51.5t-48 79t-17 100zM125 251q0 -38 10 -76t30 -68t50.5 -48.5t72.5 -18.5q36 0 63 14.5t45 38.5
t26.5 55t8.5 63q0 33 -8 70t-26 67.5t-47.5 51t-72.5 20.5q-25 0 -51.5 -9t-49 -29t-37 -52t-14.5 -79zM107 554q4 22 13 42t23 35t33 23.5t43 8.5q19 0 37.5 -7t36.5 -16q20 -10 37.5 -17t34.5 -7q20 0 32 15t17 32h34q-5 -22 -13.5 -41.5t-22 -34.5t-32 -24t-43.5 -9
q-19 0 -37.5 6.5t-35.5 14.5q-20 10 -38 18t-32 8q-22 0 -35.5 -13.5t-18.5 -33.5h-33z" />
    <glyph glyph-name="odieresis" unicode="&#xf6;" horiz-adv-x="556" 
d="M39 233q0 52 18 96.5t50.5 77t76.5 51t97 18.5q57 0 101 -21t74 -55.5t45.5 -79t15.5 -90.5q0 -59 -18.5 -105t-51 -77.5t-77 -47.5t-96.5 -16q-53 0 -96 18.5t-74 51.5t-48 79t-17 100zM125 251q0 -38 10 -76t30 -68t50.5 -48.5t72.5 -18.5q36 0 63 14.5t45 38.5
t26.5 55t8.5 63q0 33 -8 70t-26 67.5t-47.5 51t-72.5 20.5q-25 0 -51.5 -9t-49 -29t-37 -52t-14.5 -79zM124 595q0 22 15 37t37 15t37 -15t15 -37t-15 -37t-37 -15t-37 15t-15 37zM328 595q0 22 15 37t37 15t37 -15t15 -37t-15 -37t-37 -15t-37 15t-15 37z" />
    <glyph glyph-name="divide" unicode="&#xf7;" 
d="M250 447q-20 0 -32.5 13t-12.5 34t12.5 34.5t32.5 13.5q22 0 34 -13.5t12 -34.5t-12 -34t-34 -13zM46 342h409v-52h-409v52zM250 91q-20 0 -32.5 13t-12.5 34t12.5 34.5t32.5 13.5q22 0 34 -13.5t12 -34.5t-12 -34t-34 -13z" />
    <glyph glyph-name="oslash" unicode="&#xf8;" horiz-adv-x="556" 
d="M349 399q-30 21 -72 21q-25 0 -51.5 -9t-49 -29t-37 -52t-14.5 -79q0 -42 12 -83.5t37 -71.5zM207 66q32 -26 81 -26q36 0 63 14.5t45 38.5t26.5 55t8.5 63q0 39 -11.5 83t-38.5 76zM135 28q-45 32 -70.5 85t-25.5 120q0 52 18 96.5t50.5 77t76.5 51t97 18.5
q55 0 100 -21l33 58h50l-46 -79q48 -35 73.5 -89.5t25.5 -114.5q0 -59 -18.5 -105t-51 -77.5t-77 -47.5t-96.5 -16q-55 0 -102 22l-35 -60h-49z" />
    <glyph glyph-name="ugrave" unicode="&#xf9;" horiz-adv-x="556" 
d="M512 -6q-14 2 -33 4t-36 2q-13 0 -34 -2t-35 -4q2 15 4 31.5t2 33.5v28h-2q-18 -49 -55 -76t-92 -27q-24 0 -49.5 7.5t-45.5 24.5t-33 44.5t-13 68.5v249q0 26 -10 34.5t-36 10.5v8q33 10 70.5 22.5t64.5 22.5q-2 -17 -2.5 -40.5t-0.5 -49.5v-275q0 -12 3.5 -23.5
t12 -20.5t22 -15t33.5 -6q66 0 99.5 54.5t33.5 149.5v128q0 26 -10 34.5t-36 10.5v8q33 10 70.5 22.5t64.5 22.5q-2 -17 -2.5 -40.5t-0.5 -49.5v-331q0 -23 8.5 -33.5t37.5 -13.5v-14zM167 618q-15 9 -28 21.5t-13 26.5q0 11 10.5 25t30.5 14q9 0 21 -7.5t38 -34.5l129 -134
h-46z" />
    <glyph glyph-name="uacute" unicode="&#xfa;" horiz-adv-x="556" 
d="M512 -6q-14 2 -33 4t-36 2q-13 0 -34 -2t-35 -4q2 15 4 31.5t2 33.5v28h-2q-18 -49 -55 -76t-92 -27q-24 0 -49.5 7.5t-45.5 24.5t-33 44.5t-13 68.5v249q0 26 -10 34.5t-36 10.5v8q33 10 70.5 22.5t64.5 22.5q-2 -17 -2.5 -40.5t-0.5 -49.5v-275q0 -12 3.5 -23.5
t12 -20.5t22 -15t33.5 -6q66 0 99.5 54.5t33.5 149.5v128q0 26 -10 34.5t-36 10.5v8q33 10 70.5 22.5t64.5 22.5q-2 -17 -2.5 -40.5t-0.5 -49.5v-331q0 -23 8.5 -33.5t37.5 -13.5v-14zM330 663q26 27 38 34.5t21 7.5q20 0 30.5 -14t10.5 -25q0 -14 -13 -26.5t-28 -21.5
l-142 -89h-46z" />
    <glyph glyph-name="ucircumflex" unicode="&#xfb;" horiz-adv-x="556" 
d="M512 -6q-14 2 -33 4t-36 2q-13 0 -34 -2t-35 -4q2 15 4 31.5t2 33.5v28h-2q-18 -49 -55 -76t-92 -27q-24 0 -49.5 7.5t-45.5 24.5t-33 44.5t-13 68.5v249q0 26 -10 34.5t-36 10.5v8q33 10 70.5 22.5t64.5 22.5q-2 -17 -2.5 -40.5t-0.5 -49.5v-275q0 -12 3.5 -23.5
t12 -20.5t22 -15t33.5 -6q66 0 99.5 54.5t33.5 149.5v128q0 26 -10 34.5t-36 10.5v8q33 10 70.5 22.5t64.5 22.5q-2 -17 -2.5 -40.5t-0.5 -49.5v-331q0 -23 8.5 -33.5t37.5 -13.5v-14zM243 698h70l123 -169h-42l-116 103l-116 -103h-42z" />
    <glyph glyph-name="udieresis" unicode="&#xfc;" horiz-adv-x="556" 
d="M512 -6q-14 2 -33 4t-36 2q-13 0 -34 -2t-35 -4q2 15 4 31.5t2 33.5v28h-2q-18 -49 -55 -76t-92 -27q-24 0 -49.5 7.5t-45.5 24.5t-33 44.5t-13 68.5v249q0 26 -10 34.5t-36 10.5v8q33 10 70.5 22.5t64.5 22.5q-2 -17 -2.5 -40.5t-0.5 -49.5v-275q0 -12 3.5 -23.5
t12 -20.5t22 -15t33.5 -6q66 0 99.5 54.5t33.5 149.5v128q0 26 -10 34.5t-36 10.5v8q33 10 70.5 22.5t64.5 22.5q-2 -17 -2.5 -40.5t-0.5 -49.5v-331q0 -23 8.5 -33.5t37.5 -13.5v-14zM124 595q0 22 15 37t37 15t37 -15t15 -37t-15 -37t-37 -15t-37 15t-15 37zM328 595
q0 22 15 37t37 15t37 -15t15 -37t-15 -37t-37 -15t-37 15t-15 37z" />
    <glyph glyph-name="yacute" unicode="&#xfd;" 
d="M79 -74h11q5 -17 13 -31t29 -14q40 -3 66 37q15 23 24 40.5t9 31.5q0 5 -13.5 36.5t-42.5 103.5l-122 299q-5 13 -19.5 17.5t-26.5 5.5v14q29 -2 52 -4t49 -2q27 0 50.5 2t44.5 4v-14q-7 -1 -15 -2.5t-15 -4.5t-11.5 -8t-4.5 -14q0 -4 1.5 -9.5t6 -19t13.5 -38t25 -64.5
l75 -194h2l37 108q23 66 36.5 105.5t20.5 61t9 30t2 12.5q0 20 -12.5 27.5t-29.5 9.5v14q22 -2 43.5 -4t44.5 -2q16 0 31 2t31 4v-14q-25 -2 -34 -15t-17 -35l-152 -407q-15 -42 -29 -69.5t-28 -54.5q-7 -13 -18.5 -24.5t-25.5 -20.5t-29 -14t-28 -5q-27 0 -47 7zM302 663
q26 27 38 34.5t21 7.5q20 0 30.5 -14t10.5 -25q0 -14 -13 -26.5t-28 -21.5l-142 -89h-46z" />
    <glyph glyph-name="thorn" unicode="&#xfe;" horiz-adv-x="611" 
d="M36 -169q21 2 37.5 11t16.5 27v767q0 17 -8 23.5t-28 12.5l-23 5v8q18 5 38.5 10.5t40.5 11.5t38.5 12t32.5 11q-2 -35 -3.5 -70.5t-1.5 -70.5v-192h3q29 40 72.5 59.5t91.5 19.5q44 0 84 -16t71 -46.5t49 -75t18 -101.5q0 -48 -16.5 -93.5t-47.5 -81t-74.5 -57
t-98.5 -21.5q-25 0 -48.5 6t-43 15.5t-34.5 21.5t-23 25h-3v-183q0 -18 17 -27t43 -11v-14q-26 2 -48 4t-49 2q-32 0 -54.5 -2t-48.5 -4v14zM176 227q0 -97 37 -142t103 -45q39 0 68.5 16t49 42t29.5 60t10 69q0 50 -12 85.5t-31.5 58t-46 33t-54.5 10.5q-75 0 -114 -51
t-39 -136z" />
    <glyph glyph-name="ydieresis" unicode="&#xff;" 
d="M79 -74h11q5 -17 13 -31t29 -14q40 -3 66 37q15 23 24 40.5t9 31.5q0 5 -13.5 36.5t-42.5 103.5l-122 299q-5 13 -19.5 17.5t-26.5 5.5v14q29 -2 52 -4t49 -2q27 0 50.5 2t44.5 4v-14q-7 -1 -15 -2.5t-15 -4.5t-11.5 -8t-4.5 -14q0 -4 1.5 -9.5t6 -19t13.5 -38t25 -64.5
l75 -194h2l37 108q23 66 36.5 105.5t20.5 61t9 30t2 12.5q0 20 -12.5 27.5t-29.5 9.5v14q22 -2 43.5 -4t44.5 -2q16 0 31 2t31 4v-14q-25 -2 -34 -15t-17 -35l-152 -407q-15 -42 -29 -69.5t-28 -54.5q-7 -13 -18.5 -24.5t-25.5 -20.5t-29 -14t-28 -5q-27 0 -47 7zM96 595
q0 22 15 37t37 15t37 -15t15 -37t-15 -37t-37 -15t-37 15t-15 37zM300 595q0 22 15 37t37 15t37 -15t15 -37t-15 -37t-37 -15t-37 15t-15 37z" />
    <glyph glyph-name="dotlessi" unicode="&#x131;" horiz-adv-x="278" 
d="M42 8q21 2 37.5 11t16.5 27v336q0 19 -9.5 26t-34.5 12l-16 3v8q39 10 77 21.5t74 23.5q-2 -24 -3.5 -50.5t-1.5 -50.5v-329q0 -18 16.5 -27t37.5 -11v-14q-26 2 -48 4t-49 2t-49 -2t-48 -4v14z" />
    <glyph glyph-name="OE" unicode="&#x152;" horiz-adv-x="1000" 
d="M526 52q-35 -33 -75.5 -50.5t-102.5 -17.5q-56 0 -114.5 20t-106.5 61t-78.5 104t-30.5 150q0 75 29 136t77 104.5t109.5 67t126.5 23.5q53 0 93 -15t73 -39v38h420q0 -75 6 -148h-20q-5 30 -13 48t-20 28t-26.5 13t-30.5 3h-218v-214h142q13 0 24 1.5t18.5 7t12.5 17
t8 32.5h20q-2 -22 -4 -42.5t-2 -42.5q0 -23 2 -44t4 -43h-20q-3 21 -8 32.5t-12.5 17t-18.5 7t-24 1.5h-142v-252h201q31 0 54 4t39.5 16t27 33t17.5 55h19q-4 -42 -6.5 -82t-3.5 -82h-446v52zM526 518q-37 38 -82 54t-83 16q-56 0 -101.5 -18t-77.5 -50t-49 -78t-17 -101
q0 -57 19 -110t53 -94t81.5 -66t104.5 -25q54 0 90 18.5t62 50.5v403z" />
    <glyph glyph-name="oe" unicode="&#x153;" horiz-adv-x="944" 
d="M885 53q-17 -19 -40 -32t-48 -21.5t-48.5 -12t-41.5 -3.5q-36 0 -65.5 4t-55.5 15t-49 30.5t-46 49.5q-37 -52 -92 -75.5t-109 -23.5q-60 0 -106.5 18.5t-79 51.5t-49 79t-16.5 100q0 52 18 96.5t51 77t78.5 51t99.5 18.5q29 0 56 -4t53.5 -15.5t52 -31t50.5 -50.5
q35 52 84 76.5t112 24.5q101 0 155.5 -61t54.5 -173h-369q1 -40 13.5 -75.5t35.5 -62.5t56.5 -42.5t77.5 -15.5q53 0 97 19t77 53zM125 240q0 -28 9.5 -63.5t30.5 -67t53.5 -53.5t77.5 -22q24 0 51.5 10t51.5 31t40 53t16 76q0 48 -9.5 88.5t-30.5 70.5t-54 46.5t-79 16.5
q-33 0 -61.5 -11t-50 -34t-33.5 -58t-12 -83zM812 298q0 54 -32.5 91t-96.5 37q-59 0 -98 -35.5t-46 -92.5h273z" />
    <glyph glyph-name="Scaron" unicode="&#x160;" horiz-adv-x="556" 
d="M74 186q18 -72 70 -109t126 -37q27 0 55 7.5t50.5 23t36.5 40t14 57.5q0 30 -8.5 49t-24 31t-37 18.5t-47.5 11.5q-65 13 -114 26.5t-83 34t-51 50.5t-17 76q0 37 19 70.5t53.5 59t83.5 40.5t109 15q16 0 38.5 -2t46.5 -6t45.5 -10.5t35.5 -14.5q-1 -35 0.5 -69.5
t3.5 -69.5h-20q-5 33 -22 55t-40 35.5t-50.5 19.5t-53.5 6q-81 0 -122 -33t-41 -81q0 -27 8 -43.5t27 -28t50 -19.5t77 -17q47 -9 87 -20.5t69.5 -31t46.5 -50.5t17 -81q0 -42 -16 -79t-49 -65t-84 -44.5t-121 -16.5q-47 0 -93 10.5t-89 36.5q0 77 -6 155h20zM120 872h42
l116 -103l116 103h42l-123 -169h-70z" />
    <glyph glyph-name="scaron" unicode="&#x161;" horiz-adv-x="444" 
d="M43 123h12q13 -28 30.5 -45.5t38 -27t43.5 -13t47 -3.5q57 0 86.5 21.5t29.5 54.5q0 19 -6 31.5t-21.5 21.5t-43.5 16t-72 16q-71 14 -109 45t-38 85q0 67 54.5 109t151.5 42q33 0 66 -7t65 -12v-112h-14q-14 41 -47 61t-76 20q-54 0 -87 -21.5t-33 -61.5q0 -35 32 -49
t98 -26q39 -8 68 -17.5t48 -24.5t28.5 -37.5t9.5 -55.5q0 -71 -54.5 -110t-153.5 -39q-38 0 -75 9t-70 26zM65 698h42l116 -103l116 103h42l-123 -169h-70z" />
    <glyph glyph-name="Ydieresis" unicode="&#x178;" horiz-adv-x="556" 
d="M173 8q38 5 50.5 18.5t12.5 39.5v179l-180 330q-12 22 -25 34t-40 17v14q27 0 53.5 -3t52.5 -3t51.5 3t51.5 3v-14q-47 -1 -47 -23q0 -8 2.5 -16.5t9.5 -22.5l136 -266l127 268q5 12 6 20t1 14q0 13 -11 18.5t-37 7.5v14q20 0 47 -3t51 -3q18 0 37 3t43 3v-14
q-14 -1 -24.5 -4.5t-18.5 -11.5t-15.5 -20.5t-16.5 -30.5l-156 -314v-179q0 -26 12.5 -39.5t50.5 -18.5v-14q-29 0 -59 3t-53 3t-53 -3t-59 -3v14zM124 769q0 22 15 37t37 15t37 -15t15 -37t-15 -37t-37 -15t-37 15t-15 37zM328 769q0 22 15 37t37 15t37 -15t15 -37t-15 -37
t-37 -15t-37 15t-15 37z" />
    <glyph glyph-name="Zcaron" unicode="&#x17d;" horiz-adv-x="556" 
d="M371 578h-172q-55 0 -81 -30.5t-41 -80.5h-15q5 42 9.5 85.5t4.5 81.5h435l-341 -578h219q31 0 52 7.5t35.5 23t23.5 40t18 58.5h16q-5 -47 -8 -95.5t-3 -89.5h-495zM120 872h42l116 -103l116 103h42l-123 -169h-70z" />
    <glyph glyph-name="zcaron" unicode="&#x17e;" horiz-adv-x="444" 
d="M280 410h-131q-33 0 -59 -15t-35 -53h-14q2 15 4.5 31.5t5 32.5t4 30t2.5 24h349l-253 -410h140q27 0 46.5 3.5t33.5 13.5t23 27.5t14 46.5h14q-3 -35 -5 -70.5t-3 -70.5h-390zM65 698h42l116 -103l116 103h42l-123 -169h-70z" />
    <glyph glyph-name="florin" unicode="&#x192;" 
d="M23 -64q6 -27 19.5 -38t39.5 -11q29 0 52 31t31 79q6 35 11 71.5t9.5 71.5t7.5 67.5t5 59.5l10 131v6h-102v56h108q3 59 17 108.5t37 85.5t54.5 56t69.5 20q13 0 22.5 -0.5t20.5 -2.5q2 -29 6 -58.5t9 -58.5h-14q-5 14 -18.5 24t-39.5 10q-35 0 -57 -48t-27 -136h112v-56
h-117q-2 -33 -3.5 -62t-3.5 -55t-4.5 -51t-5.5 -52l-12 -95q-17 -137 -63.5 -209.5t-125.5 -72.5q-24 0 -48 11q-2 29 -5.5 59t-8.5 59h14z" />
    <glyph glyph-name="circumflex" unicode="&#x2c6;" 
d="M215 698h70l123 -169h-42l-116 103l-116 -103h-42z" />
    <glyph glyph-name="caron" unicode="&#x2c7;" 
d="M92 698h42l116 -103l116 103h42l-123 -169h-70z" />
    <glyph glyph-name="ring" unicode="&#x2da;" 
d="M148 631q0 21 8 39.5t22 32.5t32.5 22t39.5 8t39.5 -8t32.5 -22t22 -32.5t8 -39.5t-8 -39.5t-22 -32.5t-32.5 -22t-39.5 -8t-39.5 8t-32.5 22t-22 32.5t-8 39.5zM186 631q0 -26 19 -45t45 -19t45 19t19 45t-19 45t-45 19t-45 -19t-19 -45z" />
    <glyph glyph-name="tilde" unicode="&#x2dc;" 
d="M79 554q4 22 13 42t23 35t33 23.5t43 8.5q19 0 37.5 -7t36.5 -16q20 -10 37.5 -17t34.5 -7q20 0 32 15t17 32h34q-5 -22 -13.5 -41.5t-22 -34.5t-32 -24t-43.5 -9q-19 0 -37.5 6.5t-35.5 14.5q-20 10 -38 18t-32 8q-22 0 -35.5 -13.5t-18.5 -33.5h-33z" />
    <glyph glyph-name="endash" unicode="&#x2013;" 
d="M0 287h500v-68h-500v68z" />
    <glyph glyph-name="emdash" unicode="&#x2014;" horiz-adv-x="1000" 
d="M0 287h1000v-68h-1000v68z" />
    <glyph glyph-name="quoteleft" unicode="&#x2018;" horiz-adv-x="222" 
d="M62 446q0 51 13.5 87t30 58.5t30.5 32.5t16 10q8 0 8 -5q0 -4 -4 -12.5t-8.5 -22t-8 -32.5t-3.5 -44q0 -24 4.5 -48.5t12.5 -47.5h-91v24z" />
    <glyph glyph-name="quoteright" unicode="&#x2019;" horiz-adv-x="222" 
d="M160 634v-24q0 -51 -13.5 -87t-30 -58.5t-30.5 -32.5t-16 -10q-8 0 -8 5q0 4 3.5 12.5t8 22t8.5 32.5t4 44q0 24 -4.5 48.5t-12.5 47.5h91z" />
    <glyph glyph-name="quotesinglbase" unicode="&#x201a;" horiz-adv-x="222" 
d="M160 112v-24q0 -51 -13.5 -87t-30 -58.5t-30.5 -32.5t-16 -10q-8 0 -8 5q0 4 3.5 12.5t8 22t8.5 32.5t4 44q0 24 -4.5 48.5t-12.5 47.5h91z" />
    <glyph glyph-name="quotedblleft" unicode="&#x201c;" horiz-adv-x="389" 
d="M226 446q0 51 13.5 87t30 58.5t30.5 32.5t16 10q8 0 8 -5q0 -4 -4 -12.5t-8.5 -22t-8 -32.5t-3.5 -44q0 -24 4.5 -48.5t12.5 -47.5h-91v24zM65 446q0 51 13.5 87t30 58.5t30.5 32.5t16 10q8 0 8 -5q0 -4 -4 -12.5t-8.5 -22t-8 -32.5t-3.5 -44q0 -24 4.5 -48.5t12.5 -47.5
h-91v24z" />
    <glyph glyph-name="quotedblright" unicode="&#x201d;" horiz-adv-x="389" 
d="M163 634v-24q0 -51 -13.5 -87t-30 -58.5t-30.5 -32.5t-16 -10q-8 0 -8 5q0 4 3.5 12.5t8 22t8.5 32.5t4 44q0 24 -4.5 48.5t-12.5 47.5h91zM324 634v-24q0 -51 -13.5 -87t-30 -58.5t-30.5 -32.5t-16 -10q-8 0 -8 5q0 4 3.5 12.5t8 22t8.5 32.5t4 44q0 24 -4.5 48.5
t-12.5 47.5h91z" />
    <glyph glyph-name="quotedblbase" unicode="&#x201e;" horiz-adv-x="389" 
d="M163 112v-24q0 -51 -13.5 -87t-30 -58.5t-30.5 -32.5t-16 -10q-8 0 -8 5q0 4 3.5 12.5t8 22t8.5 32.5t4 44q0 24 -4.5 48.5t-12.5 47.5h91zM324 112v-24q0 -51 -13.5 -87t-30 -58.5t-30.5 -32.5t-16 -10q-8 0 -8 5q0 4 3.5 12.5t8 22t8.5 32.5t4 44q0 24 -4.5 48.5
t-12.5 47.5h91z" />
    <glyph glyph-name="dagger" unicode="&#x2020;" 
d="M130 -169q26 3 41.5 10.5t23.5 17t10 20t2 20.5v441h-64q-20 0 -32.5 -4t-19.5 -12.5t-9.5 -21.5t-3.5 -30h-20q2 24 4 47.5t2 50.5q0 22 -2 47t-4 53h20q1 -17 3.5 -30t9.5 -21.5t19.5 -12.5t32.5 -4h64v156q0 10 -2 20.5t-10 20t-23.5 17t-41.5 10.5v14q35 -2 64.5 -4
t54.5 -2q27 0 55.5 2t65.5 4v-14q-26 -3 -41.5 -10.5t-23.5 -17t-10 -20t-2 -20.5v-156h64q20 0 32.5 4t19.5 12.5t9.5 21.5t3.5 30h20q-2 -28 -4 -53t-2 -47q0 -27 2 -50.5t4 -47.5h-20q-1 17 -3.5 30t-9.5 21.5t-19.5 12.5t-32.5 4h-64v-441q0 -10 2 -20.5t10 -20
t23.5 -17t41.5 -10.5v-14q-30 2 -59.5 3.5t-61.5 2.5q-30 0 -59.5 -2t-59.5 -4v14z" />
    <glyph glyph-name="daggerdbl" unicode="&#x2021;" 
d="M130 -169q26 3 41.5 10.5t23.5 17t10 20t2 20.5v151h-64q-20 0 -32.5 -4t-19.5 -12.5t-9.5 -21.5t-3.5 -30h-20q2 24 4 47.5t2 50.5q0 22 -2 47t-4 53h20q1 -17 3.5 -30t9.5 -21.5t19.5 -12.5t32.5 -4h64v234h-64q-20 0 -32.5 -4t-19.5 -12.5t-9.5 -21.5t-3.5 -30h-20
q2 24 4 47.5t2 50.5q0 22 -2 47t-4 53h20q1 -17 3.5 -30t9.5 -21.5t19.5 -12.5t32.5 -4h64v150q0 10 -2 20.5t-10 20t-23.5 17t-41.5 10.5v14q30 -2 59.5 -4t59.5 -2q32 1 61.5 2.5t59.5 3.5v-14q-26 -3 -41.5 -10.5t-23.5 -17t-10 -20t-2 -20.5v-150h64q20 0 32.5 4
t19.5 12.5t9.5 21.5t3.5 30h20q-2 -28 -4 -53t-2 -47q0 -27 2 -50.5t4 -47.5h-20q-1 17 -3.5 30t-9.5 21.5t-19.5 12.5t-32.5 4h-64v-234h64q20 0 32.5 4t19.5 12.5t9.5 21.5t3.5 30h20q-2 -28 -4 -53t-2 -47q0 -27 2 -50.5t4 -47.5h-20q-1 17 -3.5 30t-9.5 21.5t-19.5 12.5
t-32.5 4h-64v-151q0 -10 2 -20.5t10 -20t23.5 -17t41.5 -10.5v-14q-30 2 -59.5 3.5t-61.5 2.5q-30 0 -59.5 -2t-59.5 -4v14z" />
    <glyph glyph-name="bullet" unicode="&#x2022;" 
d="M89 317q0 33 12.5 62.5t34.5 51.5t51.5 34.5t62.5 12.5t62.5 -12.5t51.5 -34.5t34.5 -51.5t12.5 -62.5t-12.5 -62.5t-34.5 -51.5t-51.5 -34.5t-62.5 -12.5t-62.5 12.5t-51.5 34.5t-34.5 51.5t-12.5 62.5z" />
    <glyph glyph-name="ellipsis" unicode="&#x2026;" horiz-adv-x="1000" 
d="M118 33q0 20 14.5 34.5t34.5 14.5t34.5 -14.5t14.5 -34.5t-14.5 -34.5t-34.5 -14.5t-34.5 14.5t-14.5 34.5zM451 33q0 20 14.5 34.5t34.5 14.5t34.5 -14.5t14.5 -34.5t-14.5 -34.5t-34.5 -14.5t-34.5 14.5t-14.5 34.5zM784 33q0 20 14.5 34.5t34.5 14.5t34.5 -14.5
t14.5 -34.5t-14.5 -34.5t-34.5 -14.5t-34.5 14.5t-14.5 34.5z" />
    <glyph glyph-name="perthousand" unicode="&#x2030;" horiz-adv-x="1000" 
d="M89 511q0 -24 6.5 -47.5t19 -42.5t32 -31t45.5 -12q41 0 63 29t22 67q0 23 -6.5 47.5t-19.5 44.5t-32.5 33t-46.5 13q-21 0 -37 -8.5t-26 -22.5t-15 -32t-5 -38zM149 0l325 650l32 -16l-325 -650zM377 155q0 -24 6.5 -47.5t19 -42.5t32 -31t45.5 -12q41 0 63 29t22 67
q0 23 -6.5 47.5t-19.5 44.5t-32.5 33t-46.5 13q-21 0 -37 -8.5t-26 -22.5t-15 -32t-5 -38zM27 496q0 31 12.5 59t34 49t49.5 33.5t60 12.5q31 0 59.5 -12.5t50 -33.5t34 -49t12.5 -59q0 -25 -9.5 -52.5t-29 -50.5t-49 -38t-68.5 -15q-32 0 -60 12.5t-49.5 34t-34 49.5
t-12.5 60zM315 140q0 31 12.5 59t34 49t49.5 33.5t60 12.5q31 0 59.5 -12.5t50 -33.5t34 -49t12.5 -59q0 -25 -9.5 -52.5t-29 -50.5t-49 -38t-68.5 -15q-32 0 -60 12.5t-49.5 34t-34 49.5t-12.5 60zM661 140q0 31 12.5 59t34 49t49.5 33.5t60 12.5q31 0 59.5 -12.5t50 -33.5
t34 -49t12.5 -59q0 -25 -9.5 -52.5t-29 -50.5t-49 -38t-68.5 -15q-32 0 -60 12.5t-49.5 34t-34 49.5t-12.5 60zM723 155q0 -24 6.5 -47.5t19 -42.5t32 -31t45.5 -12q41 0 63 29t22 67q0 23 -6.5 47.5t-19.5 44.5t-32.5 33t-46.5 13q-21 0 -37 -8.5t-26 -22.5t-15 -32t-5 -38
z" />
    <glyph glyph-name="guilsinglleft" unicode="&#x2039;" horiz-adv-x="389" 
d="M185 253q0 -29 18 -64t39 -66.5t39 -54t18 -27.5q0 -3 -4.5 -6t-7.5 -3q-4 0 -19 11t-35 29.5t-42.5 42t-41.5 48t-31.5 48t-12.5 42.5q0 18 12.5 42t31.5 48.5t41.5 48t42.5 42t35 29.5t19 11q3 0 7.5 -3t4.5 -6q0 -5 -18 -27.5t-39 -54t-39 -66.5t-18 -64z" />
    <glyph glyph-name="guilsinglright" unicode="&#x203a;" horiz-adv-x="389" 
d="M204 253q0 29 -18 64t-39 66.5t-39 54t-18 27.5q0 3 4.5 6t7.5 3q4 0 19 -11t35 -29.5t42.5 -42t41.5 -48t31.5 -48.5t12.5 -42t-12.5 -42t-31.5 -48.5t-41.5 -48t-42.5 -42t-35 -29.5t-19 -11q-3 0 -7.5 3t-4.5 6q0 5 18 27.5t39 54t39 66.5t18 64z" />
    <glyph glyph-name="Euro" unicode="&#x20ac;" 
d="M491 38q-36 -35 -73 -44.5t-79 -9.5q-39 0 -80.5 15t-78 46.5t-63.5 80.5t-37 118h-69v48h64v22q0 26 3 52h-67v48h75q15 63 45.5 108t69 73.5t79.5 41.5t77 13q31 0 63 -4.5t58 -21.5q1 -38 2.5 -73t4.5 -73h-15q-11 37 -26.5 58.5t-33 33t-36 15t-35.5 3.5
q-72 0 -114 -46.5t-53 -127.5h200v-48h-205v-20q0 -14 0.5 -27t1.5 -27h203v-48h-196q9 -44 25 -80t40.5 -62.5t56.5 -41t72 -14.5q27 0 60.5 12.5t63.5 50.5z" />
    <glyph glyph-name="trademark" unicode="&#x2122;" horiz-adv-x="758" 
d="M316 308q29 3 30 17l13 254q1 9 1 18.5v11.5q0 14 -24 17v11q11 0 18 -0.5t13 -1.5q5 -1 8.5 -1h6.5q9 0 16.5 0.5t13.5 1.5h-1q5 1 10.5 1h12.5l100 -245l98 245q8 0 13.5 -0.5t10.5 -1.5t9 -1h9h10t10 1t11 1.5t15 0.5v-11q-10 0 -16.5 -4t-6.5 -14q0 -2 0.5 -6
t0.5 -10q0 -5 0.5 -11t0.5 -13l15 -231q1 -16 6.5 -22t21.5 -7v-11h-15.5t-13.5 1t-12 1.5t-12 0.5q-8 0 -15 -0.5t-15 -1.5t-16.5 -1h-16.5v11q19 2 24.5 6t5.5 12q0 6 -0.5 19.5t-1 28.5t-1 29t-0.5 21l-10 136l-103 -263h-29l-110 268l-10 -192v-17t-1 -17q0 -3 -0.5 -7
t-0.5 -5q0 -7 8 -13t24 -6v-11q-10 0 -16.5 0.5t-12.5 1.5t-12 1h-12h-11t-11 -1q-6 -1 -13 -1.5t-17 -0.5v11zM90 308q20 2 27 9t7 19v265h-46q-20 0 -31.5 -11t-19.5 -46h-19q3 22 5 45t4 45h275q1 -26 3 -47.5t5 -42.5h-19q-7 35 -18.5 46t-32.5 11h-45v-265
q0 -12 6.5 -19t27.5 -9v-11q-11 0 -21 0.5t-18 1.5t-14.5 1h-11.5h-11.5t-14.5 -1t-17.5 -1.5t-20.5 -0.5v11z" />
    </font>
</defs>
</svg>
